{"glyphs":{"0":{"ha":810,"x_min":3,"x_max":807,"o":"m 731 769 q 753 740 731 769 q 791 633 775 711 q 807 430 807 554 q 791 228 807 306 q 731 92 775 150 q 608 10 688 35 q 405 -14 529 -14 q 201 10 281 -14 q 78 92 122 35 q 19 228 35 150 q 3 430 3 306 q 19 633 3 554 q 78 769 35 711 q 201 851 122 826 q 404 876 279 876 q 608 851 529 876 q 731 769 688 826 m 433 218 l 433 604 l 383 604 l 383 218 l 433 218 z "},"1":{"ha":499,"x_min":0,"x_max":471,"o":"m 471 0 l 79 0 l 79 551 l 0 551 l 0 778 l 128 863 l 471 863 l 471 0 z "},"2":{"ha":701,"x_min":3,"x_max":697,"o":"m 344 875 q 697 611 697 875 q 658 433 697 506 q 535 278 619 361 l 535 269 l 694 269 l 694 0 l 33 0 l 25 213 q 225 501 225 392 q 183 543 225 543 q 29 522 150 543 l 3 833 q 344 875 158 875 z "},"3":{"ha":722,"x_min":0,"x_max":719,"o":"m 0 831 q 352 875 176 875 q 617 817 528 875 q 706 633 706 760 q 684 524 706 565 q 608 450 663 483 l 608 444 q 719 250 719 392 q 633 47 719 108 q 367 -14 547 -14 q 21 19 186 -14 l 46 286 q 263 264 246 264 q 285 269 279 264 q 292 291 292 275 q 285 312 292 307 q 258 317 278 317 l 69 317 l 69 521 l 258 521 q 280 526 274 521 q 286 546 286 532 q 279 565 286 560 q 242 571 272 571 q 26 542 213 571 l 0 831 z "},"4":{"ha":801,"x_min":0,"x_max":801,"o":"m 790 135 l 731 135 l 731 0 l 339 0 l 339 135 l 21 135 l 0 328 l 199 863 l 731 863 l 731 365 l 801 365 l 790 135 m 360 360 l 360 476 l 310 476 l 310 360 l 360 360 z "},"5":{"ha":710,"x_min":11,"x_max":704,"o":"m 428 558 q 640 502 575 558 q 704 298 704 446 q 618 68 704 150 q 336 -14 532 -14 q 17 21 186 -14 l 36 289 q 313 267 289 267 q 341 271 336 267 q 346 288 346 275 q 324 310 346 310 l 11 321 l 11 863 l 660 863 l 660 588 l 346 588 l 346 553 q 428 558 399 558 z "},"6":{"ha":789,"x_min":3,"x_max":797,"o":"m 388 556 l 482 556 q 721 494 644 556 q 797 287 797 433 q 706 63 797 140 q 407 -14 615 -14 q 101 85 199 -14 q 3 397 3 185 q 128 755 3 647 q 522 863 253 863 l 744 863 l 729 588 l 425 588 q 388 556 388 588 m 432 199 l 432 361 l 382 361 l 382 199 l 432 199 z "},"7":{"ha":651,"x_min":0,"x_max":646,"o":"m 646 628 l 482 0 l 28 0 l 194 551 l 0 551 l 0 863 l 646 863 l 646 628 z "},"8":{"ha":804,"x_min":6,"x_max":799,"o":"m 400 876 q 786 638 786 876 q 760 517 786 560 q 667 440 735 475 l 667 432 q 769 370 739 414 q 799 251 799 326 q 699 50 799 114 q 408 -14 599 -14 q 6 240 6 -14 q 138 428 6 379 l 138 436 q 44 513 72 469 q 15 632 15 557 q 119 815 15 754 q 400 876 222 876 m 431 179 l 431 350 l 381 350 l 381 179 l 431 179 m 431 511 l 431 656 l 381 656 l 381 511 l 431 511 z "},"9":{"ha":789,"x_min":-8,"x_max":786,"o":"m 401 285 l 301 285 q 69 345 146 285 q -8 554 -8 406 q 375 863 -8 863 q 691 759 596 863 q 786 424 786 656 q 661 90 786 193 q 267 -14 536 -14 l 44 -14 l 60 253 l 367 253 q 394 260 386 253 q 401 285 401 267 m 357 615 l 357 453 l 407 453 l 407 615 l 357 615 z "}," ":{"ha":243,"x_min":0,"x_max":0,"o":""},"!":{"ha":378,"x_min":28,"x_max":364,"o":"m 47 244 l 28 854 l 364 854 l 340 244 l 47 244 m 42 82 l 42 125 q 72 198 42 176 q 171 219 101 219 l 214 219 q 320 198 290 219 q 350 125 350 176 l 350 82 q 319 8 350 29 q 211 -14 289 -14 l 167 -14 q 70 7 99 -14 q 42 82 42 28 z "},"\"":{"ha":676,"x_min":28,"x_max":663,"o":"m 28 765 l 28 808 q 58 881 28 860 q 157 903 88 903 l 200 903 q 306 881 276 903 q 336 808 336 860 l 336 761 q 302 635 336 688 q 193 538 268 583 l 85 538 l 125 669 l 111 669 q 47 690 65 669 q 28 765 28 711 m 354 765 l 354 808 q 384 881 354 860 q 483 903 414 903 l 526 903 q 633 881 603 903 q 663 808 663 860 l 663 761 q 628 635 663 688 q 519 538 594 583 l 411 538 l 451 669 l 438 669 q 373 690 392 669 q 354 765 354 711 z "},"#":{"ha":778,"x_min":11,"x_max":767,"o":"m 767 429 l 679 429 l 676 399 l 749 399 l 749 196 l 656 196 l 635 0 l 364 0 l 385 196 l 350 196 l 329 0 l 47 0 l 72 196 l 11 196 l 11 399 l 92 399 l 96 429 l 31 429 l 31 628 l 114 628 l 140 821 l 413 821 l 392 628 l 422 628 l 443 821 l 718 821 l 697 628 l 767 628 l 767 429 m 404 436 l 371 436 l 365 392 l 399 392 l 404 436 z "},"$":{"ha":735,"x_min":0,"x_max":735,"o":"m 97 340 q 71 358 97 340 q 23 433 46 376 q 0 583 0 489 q 53 751 0 678 q 207 856 106 825 l 207 963 l 529 963 l 529 869 q 713 846 603 863 l 686 569 l 376 617 l 376 590 q 649 501 563 565 q 735 281 735 436 q 531 6 735 61 l 531 -89 l 207 -89 l 207 -6 q 26 28 138 0 l 38 281 l 357 219 l 357 244 q 206 284 264 264 q 97 340 147 304 z "},"%":{"ha":1460,"x_min":6,"x_max":1454,"o":"m 288 875 q 373 875 288 875 q 513 805 457 875 q 569 562 569 735 q 513 320 569 389 q 288 251 457 251 q 63 320 119 251 q 6 562 6 389 q 63 805 6 735 q 288 875 119 875 m 1173 610 q 1257 610 1173 610 q 1398 540 1342 610 q 1454 297 1454 469 q 1398 55 1454 124 q 1173 -14 1342 -14 q 947 55 1004 -14 q 890 297 890 124 q 947 540 890 469 q 1173 610 1004 610 m 964 863 l 786 0 l 499 0 l 675 863 l 964 863 m 307 414 l 307 683 l 272 683 l 272 414 l 307 414 m 1192 149 l 1192 418 l 1157 418 l 1157 149 l 1192 149 z "},"&":{"ha":969,"x_min":0,"x_max":969,"o":"m 388 -14 q 0 249 0 -14 q 40 395 0 343 q 160 479 81 447 l 160 485 q 82 639 82 546 q 436 876 82 876 q 698 818 607 876 q 789 656 789 760 q 747 506 789 553 q 603 424 704 458 l 603 418 l 674 347 l 679 347 l 679 424 l 954 424 l 954 350 q 897 186 954 242 l 900 181 l 969 181 l 958 -14 l 817 -14 q 632 21 697 -14 l 621 21 q 388 -14 513 -14 m 467 535 l 467 649 l 417 649 l 417 535 l 467 535 m 440 181 l 331 286 l 331 207 q 358 181 331 181 l 440 181 z "},"'":{"ha":350,"x_min":14,"x_max":322,"o":"m 14 765 l 14 808 q 44 881 14 860 q 143 903 74 903 l 186 903 q 292 881 263 903 q 322 808 322 860 l 322 761 q 288 635 322 688 q 179 538 254 583 l 71 538 l 111 669 l 97 669 q 33 690 51 669 q 14 765 14 711 z "},"(":{"ha":558,"x_min":17,"x_max":564,"o":"m 292 896 l 564 826 q 400 360 400 625 q 564 -147 400 94 l 281 -204 q 83 44 150 -83 q 17 349 17 172 q 83 656 17 526 q 292 896 150 785 z "},")":{"ha":558,"x_min":-6,"x_max":542,"o":"m 268 896 q 475 654 408 785 q 542 351 542 524 q 474 47 542 179 q 276 -204 406 -85 l -6 -147 q 161 349 161 76 q -6 825 161 622 l 268 896 z "},"*":{"ha":675,"x_min":11,"x_max":664,"o":"m 664 619 l 532 578 l 626 453 l 450 344 l 342 458 l 240 346 l 65 449 l 140 575 l 11 619 l 50 786 l 211 760 l 226 889 l 456 889 l 467 760 l 618 786 l 664 619 z "},"+":{"ha":624,"x_min":21,"x_max":603,"o":"m 176 121 l 176 261 l 21 261 l 21 525 l 176 525 l 176 692 l 446 692 l 446 525 l 603 525 l 603 261 l 446 261 l 446 121 l 176 121 z "},",":{"ha":336,"x_min":14,"x_max":322,"o":"m 14 82 l 14 125 q 44 198 14 176 q 143 219 74 219 l 186 219 q 292 198 263 219 q 322 125 322 176 l 322 78 q 288 -48 322 4 q 179 -146 254 -100 l 71 -146 l 111 -14 l 97 -14 q 33 7 51 -14 q 14 82 14 28 z "},"-":{"ha":539,"x_min":21,"x_max":518,"o":"m 518 203 l 21 203 l 21 472 l 518 472 l 518 203 z "},".":{"ha":336,"x_min":14,"x_max":322,"o":"m 14 82 l 14 125 q 44 198 14 176 q 143 219 74 219 l 186 219 q 292 198 263 219 q 322 125 322 176 l 322 82 q 292 8 322 29 q 183 -14 261 -14 l 139 -14 q 42 7 71 -14 q 14 82 14 28 z "},"/":{"ha":532,"x_min":-14,"x_max":546,"o":"m 546 863 l 329 -190 l -14 -190 l 201 863 l 546 863 z "},":":{"ha":336,"x_min":14,"x_max":322,"o":"m 14 82 l 14 125 q 44 198 14 176 q 143 219 74 219 l 186 219 q 292 198 263 219 q 322 125 322 176 l 322 82 q 292 8 322 29 q 183 -14 261 -14 l 139 -14 q 42 7 71 -14 q 14 82 14 28 m 14 499 l 14 542 q 44 615 14 593 q 143 636 74 636 l 186 636 q 292 615 263 636 q 322 542 322 593 l 322 499 q 292 424 322 446 q 183 403 261 403 l 139 403 q 42 424 71 403 q 14 499 14 444 z "},";":{"ha":336,"x_min":14,"x_max":322,"o":"m 14 82 l 14 125 q 44 198 14 176 q 143 219 74 219 l 186 219 q 292 198 263 219 q 322 125 322 176 l 322 78 q 288 -48 322 4 q 179 -146 254 -100 l 71 -146 l 111 -14 l 97 -14 q 33 7 51 -14 q 14 82 14 28 m 14 499 l 14 542 q 44 615 14 593 q 143 636 74 636 l 186 636 q 292 615 263 636 q 322 542 322 593 l 322 499 q 292 424 322 446 q 183 403 261 403 l 139 403 q 42 424 71 403 q 14 499 14 444 z "},"<":{"ha":475,"x_min":7,"x_max":454,"o":"m 454 -29 l 7 276 l 7 460 l 454 765 l 454 447 l 339 369 l 454 293 l 454 -29 z "},"=":{"ha":622,"x_min":28,"x_max":594,"o":"m 594 375 l 28 375 l 28 596 l 594 596 l 594 375 m 594 119 l 28 119 l 28 342 l 594 342 l 594 119 z "},">":{"ha":475,"x_min":21,"x_max":468,"o":"m 468 276 l 21 -29 l 21 293 l 136 369 l 21 447 l 21 765 l 468 460 l 468 276 z "},"?":{"ha":544,"x_min":14,"x_max":544,"o":"m 544 608 q 501 427 544 490 q 351 325 458 364 l 351 243 l 65 243 l 65 386 q 84 459 65 438 q 145 498 103 481 q 198 527 188 515 q 208 560 208 539 q 167 599 208 599 q 14 583 138 599 l 14 850 q 233 868 136 868 q 544 608 544 868 m 54 82 l 54 125 q 84 198 54 176 q 183 219 114 219 l 226 219 q 333 198 303 219 q 363 125 363 176 l 363 82 q 332 8 363 29 q 224 -14 301 -14 l 179 -14 q 83 7 111 -14 q 54 82 54 28 z "},"@":{"ha":1461,"x_min":6,"x_max":1456,"o":"m 372 425 q 446 632 372 582 q 726 682 519 682 q 1010 643 933 682 q 1086 494 1086 604 l 1086 224 l 1114 224 l 1114 494 q 1027 667 1114 622 q 717 711 940 711 q 416 653 493 711 q 339 399 339 594 l 339 203 q 396 10 339 63 q 582 -42 453 -42 l 1115 -42 l 1115 -269 q 706 -301 864 -301 q 456 -294 549 -301 q 279 -261 363 -286 q 149 -194 196 -236 q 67 -81 101 -153 q 19 91 32 -8 q 6 357 6 190 q 40 642 6 524 q 163 836 74 761 q 394 940 253 911 q 722 968 535 968 q 1013 956 908 968 q 1197 915 1118 944 q 1325 844 1276 886 q 1403 733 1374 801 q 1444 583 1433 665 q 1456 383 1456 501 q 1443 194 1456 265 q 1394 74 1431 124 q 1292 5 1357 24 q 1118 -14 1226 -14 l 890 -14 q 771 29 806 -14 l 765 29 q 642 -14 731 -14 l 582 -14 q 417 35 467 -14 q 368 210 368 85 q 400 369 368 336 q 569 401 432 401 l 739 401 l 739 425 l 372 425 m 713 269 l 713 158 l 740 158 l 740 269 l 713 269 z "},"A":{"ha":924,"x_min":-11,"x_max":935,"o":"m 935 0 l 532 0 l 510 132 l 401 132 l 378 0 l -11 0 l 157 863 l 767 863 l 935 0 m 479 317 l 479 489 l 435 489 l 435 317 l 479 317 z "},"B":{"ha":876,"x_min":28,"x_max":871,"o":"m 871 254 q 799 65 871 129 q 558 0 726 0 l 28 0 l 28 863 l 553 863 q 854 635 854 863 q 837 525 854 564 q 771 458 819 486 l 771 453 q 871 254 871 414 m 461 176 l 461 347 l 417 347 l 417 176 l 461 176 m 461 506 l 461 650 l 417 650 l 417 506 l 461 506 z "},"C":{"ha":650,"x_min":8,"x_max":639,"o":"m 469 422 q 469 384 469 422 q 485 325 469 346 q 531 304 501 304 q 618 315 560 304 l 639 0 q 451 -14 539 -14 q 117 92 226 -14 q 8 437 8 199 q 121 775 8 675 q 474 875 233 875 q 639 861 535 875 l 615 529 q 530 536 560 536 q 485 517 500 536 q 469 422 469 497 z "},"D":{"ha":885,"x_min":28,"x_max":876,"o":"m 876 450 q 401 0 876 0 l 28 0 l 28 863 l 410 863 q 770 756 664 863 q 876 450 876 650 m 453 218 l 453 604 l 408 604 l 408 218 l 453 218 z "},"E":{"ha":679,"x_min":28,"x_max":679,"o":"m 653 0 l 28 0 l 28 863 l 679 863 l 658 579 l 419 579 l 419 529 l 653 529 l 639 299 l 419 299 l 419 249 l 674 249 l 653 0 z "},"F":{"ha":664,"x_min":28,"x_max":664,"o":"m 419 306 l 419 0 l 28 0 l 28 863 l 664 863 l 643 579 l 419 579 l 419 529 l 639 529 l 625 306 l 419 306 z "},"G":{"ha":851,"x_min":8,"x_max":838,"o":"m 772 544 q 487 569 510 569 q 458 563 464 569 q 451 532 451 556 l 451 218 l 496 218 l 496 469 l 838 469 l 838 0 l 568 0 l 554 36 l 549 36 q 360 -14 476 -14 q 8 435 8 -14 q 115 766 8 657 q 468 875 221 875 q 808 842 611 875 l 772 544 z "},"H":{"ha":889,"x_min":28,"x_max":861,"o":"m 861 0 l 467 0 l 467 303 l 422 303 l 422 0 l 28 0 l 28 863 l 422 863 l 422 542 l 467 542 l 467 863 l 861 863 l 861 0 z "},"I":{"ha":447,"x_min":28,"x_max":419,"o":"m 419 0 l 28 0 l 28 863 l 419 863 l 419 0 z "},"J":{"ha":490,"x_min":0,"x_max":463,"o":"m 463 863 l 463 182 q 419 30 463 74 q 249 -14 376 -14 l 15 -14 l 0 238 l 71 238 l 71 863 l 463 863 z "},"K":{"ha":918,"x_min":49,"x_max":918,"o":"m 915 0 l 511 0 l 454 300 l 440 300 l 440 0 l 49 0 l 49 863 l 440 863 l 440 513 l 454 513 l 526 863 l 918 863 l 824 429 l 915 0 z "},"L":{"ha":564,"x_min":28,"x_max":564,"o":"m 544 0 l 28 0 l 28 863 l 419 863 l 419 276 l 564 276 l 544 0 z "},"M":{"ha":1135,"x_min":28,"x_max":1121,"o":"m 1121 0 l 786 0 l 774 346 l 761 346 l 725 0 l 407 0 l 375 346 l 364 346 l 349 0 l 28 0 l 64 863 l 519 863 l 563 549 l 582 549 l 618 863 l 1085 863 l 1121 0 z "},"N":{"ha":906,"x_min":28,"x_max":878,"o":"m 878 0 l 522 0 l 365 276 l 365 0 l 28 0 l 28 863 l 393 863 l 538 583 l 538 863 l 878 863 l 878 0 z "},"O":{"ha":931,"x_min":8,"x_max":922,"o":"m 8 437 q 8 552 8 437 q 115 772 8 668 q 467 875 221 875 q 817 773 713 875 q 922 440 922 671 q 814 97 922 208 q 463 -14 706 -14 q 115 96 221 -14 q 8 437 8 206 m 496 218 l 496 604 l 451 604 l 451 218 l 496 218 z "},"P":{"ha":825,"x_min":28,"x_max":825,"o":"m 460 240 l 419 240 l 419 0 l 28 0 l 28 863 l 443 863 q 733 786 640 863 q 825 549 825 710 q 736 314 825 388 q 460 240 647 240 m 458 442 l 458 614 l 414 614 l 414 442 l 458 442 z "},"Q":{"ha":931,"x_min":8,"x_max":922,"o":"m 8 441 q 8 555 8 441 q 115 772 8 668 q 467 875 221 875 q 817 773 713 875 q 922 444 922 671 q 719 71 922 167 l 719 65 l 907 65 l 881 -150 l 749 -150 q 517 -90 586 -150 l 426 -14 q 115 100 221 -14 q 8 441 8 214 m 496 218 l 496 604 l 451 604 l 451 218 l 496 218 z "},"R":{"ha":865,"x_min":28,"x_max":872,"o":"m 486 863 q 758 794 672 863 q 844 585 844 726 q 757 367 844 444 l 872 0 l 494 0 l 444 268 l 419 268 l 419 0 l 28 0 l 28 863 l 486 863 m 458 472 l 458 614 l 414 614 l 414 472 l 458 472 z "},"S":{"ha":735,"x_min":0,"x_max":735,"o":"m 735 283 q 378 -14 735 -14 q 26 28 201 -14 l 38 281 l 357 219 l 357 244 q 206 284 264 264 q 97 340 147 304 q 0 562 0 410 q 92 794 0 714 q 356 875 185 875 q 713 846 526 875 l 686 569 l 376 617 l 376 590 q 649 501 563 565 q 735 283 735 436 z "},"T":{"ha":675,"x_min":0,"x_max":675,"o":"m 657 582 l 532 582 l 532 0 l 139 0 l 139 582 l 0 582 l 14 863 l 675 863 l 657 582 z "},"U":{"ha":894,"x_min":28,"x_max":867,"o":"m 422 863 l 422 246 l 467 246 l 467 863 l 867 863 l 867 289 q 443 -14 867 -14 q 135 61 242 -14 q 28 286 28 136 l 28 863 l 422 863 z "},"V":{"ha":883,"x_min":0,"x_max":883,"o":"m 883 863 l 757 0 l 138 0 l 0 863 l 406 863 l 439 357 l 465 357 l 494 863 l 883 863 z "},"W":{"ha":1133,"x_min":0,"x_max":1133,"o":"m 1133 863 l 1068 0 l 631 0 l 588 314 l 568 314 l 532 0 l 83 0 l 0 863 l 340 863 l 364 513 l 381 513 l 413 863 l 739 863 l 769 513 l 785 513 l 806 863 l 1133 863 z "},"X":{"ha":908,"x_min":-8,"x_max":917,"o":"m 917 0 l 499 0 l 454 208 l 436 208 l 389 0 l -8 0 l 128 438 l 8 863 l 419 863 l 458 657 l 475 657 l 508 863 l 894 863 l 788 438 l 917 0 z "},"Y":{"ha":815,"x_min":-17,"x_max":832,"o":"m 832 863 l 600 224 l 600 0 l 208 0 l 208 225 l -17 863 l 369 863 l 404 579 l 421 579 l 456 863 l 832 863 z "},"Z":{"ha":807,"x_min":3,"x_max":804,"o":"m 804 0 l 39 1 l 28 215 l 286 579 l 21 579 l 3 863 l 785 863 l 796 649 l 565 260 l 804 260 l 804 0 z "},"[":{"ha":536,"x_min":61,"x_max":522,"o":"m 522 -190 l 61 -190 l 61 875 l 522 875 l 522 675 l 415 675 l 415 8 l 522 8 l 522 -190 z "},"\\":{"ha":532,"x_min":-14,"x_max":546,"o":"m 203 -190 l -14 863 l 331 863 l 546 -190 l 203 -190 z "},"]":{"ha":536,"x_min":14,"x_max":475,"o":"m 475 -190 l 14 -190 l 14 8 l 124 8 l 124 675 l 14 675 l 14 875 l 475 875 l 475 -190 z "},"^":{"ha":694,"x_min":74,"x_max":613,"o":"m 518 882 l 613 696 l 371 696 l 349 746 l 343 746 l 321 696 l 74 696 l 168 882 l 518 882 z "},"_":{"ha":556,"x_min":0,"x_max":556,"o":"m 556 -190 l 0 -190 l 0 0 l 556 0 l 556 -190 z "},"`":{"ha":694,"x_min":146,"x_max":560,"o":"m 311 710 l 146 890 l 471 890 l 560 710 l 311 710 z "},"a":{"ha":760,"x_min":0,"x_max":757,"o":"m 729 481 l 722 242 q 757 208 722 208 l 738 -8 q 604 -14 654 -14 q 424 29 479 -14 l 417 29 q 233 -14 333 -14 q 0 189 0 -14 q 97 361 0 315 q 211 394 149 385 q 369 408 274 404 l 369 438 l 53 411 l 26 656 q 406 682 233 682 q 654 636 579 682 q 729 481 729 590 m 356 272 l 356 161 l 383 161 l 383 272 l 356 272 z "},"b":{"ha":800,"x_min":22,"x_max":794,"o":"m 794 349 q 735 74 794 163 q 510 -14 676 -14 q 324 26 424 -14 l 318 0 l 22 0 l 22 875 l 376 875 l 376 667 q 506 682 426 682 q 647 663 586 682 q 740 598 707 643 q 783 496 772 553 q 794 349 794 439 m 401 182 l 401 446 l 374 446 l 374 182 l 401 182 z "},"c":{"ha":539,"x_min":6,"x_max":539,"o":"m 445 390 q 436 390 445 390 q 417 377 428 390 q 406 324 406 364 q 416 273 406 285 q 445 261 426 261 q 517 267 464 261 l 532 1 q 371 -14 440 -14 q 95 67 185 -14 q 6 321 6 149 q 375 682 6 682 q 539 668 463 682 l 515 385 q 445 390 463 390 z "},"d":{"ha":810,"x_min":6,"x_max":807,"o":"m 658 -14 q 475 28 533 -14 l 468 28 q 308 -14 399 -14 q 6 339 6 -14 q 85 594 6 506 q 315 682 165 682 q 419 671 353 682 l 419 875 l 774 875 l 774 240 q 807 208 774 208 l 788 -7 q 658 -14 694 -14 m 429 182 l 429 446 l 401 446 l 401 182 l 429 182 z "},"e":{"ha":754,"x_min":3,"x_max":751,"o":"m 751 414 q 740 250 751 354 l 372 250 l 372 225 q 492 218 432 218 q 715 226 551 218 l 729 17 q 389 -14 539 -14 q 3 329 3 -14 q 404 682 3 682 q 674 613 597 682 q 751 414 751 544 m 399 353 l 399 463 l 371 463 l 371 353 l 399 353 z "},"f":{"ha":446,"x_min":0,"x_max":467,"o":"m 278 889 q 467 881 344 889 l 454 682 l 396 682 l 396 658 l 453 658 l 444 451 l 401 451 l 401 0 l 38 0 l 38 451 l 0 451 l 0 658 l 38 658 l 38 685 q 93 840 38 790 q 278 889 149 889 z "},"g":{"ha":769,"x_min":3,"x_max":769,"o":"m 326 682 l 769 682 l 769 508 l 699 508 l 699 501 q 733 399 733 464 q 672 245 733 294 q 472 196 610 196 l 292 196 l 292 171 l 568 171 q 714 135 668 171 q 760 24 760 99 q 655 -146 760 -87 q 351 -204 550 -204 q 38 -140 92 -204 q 14 -62 14 -112 q 69 13 14 -12 l 69 18 q 3 122 3 46 q 107 249 3 215 l 107 256 q 8 444 8 318 q 88 626 8 569 q 326 682 168 682 m 292 -10 l 292 -35 l 490 -35 l 490 -10 l 292 -10 m 369 472 l 369 340 l 397 340 l 397 472 l 369 472 z "},"h":{"ha":792,"x_min":14,"x_max":778,"o":"m 368 646 q 556 682 444 682 q 722 628 667 682 q 778 485 778 575 l 778 0 l 407 0 l 407 415 l 379 415 l 379 0 l 14 0 l 14 875 l 368 875 l 368 646 z "},"i":{"ha":392,"x_min":14,"x_max":378,"o":"m 378 0 l 14 0 l 14 644 l 378 644 l 378 0 m 14 772 l 14 788 q 171 896 14 896 l 214 896 q 378 788 378 896 l 378 772 q 214 663 378 663 l 169 663 q 14 772 14 663 z "},"j":{"ha":411,"x_min":0,"x_max":397,"o":"m 397 644 l 397 3 q 333 -148 397 -106 q 110 -190 268 -190 l 11 -190 l 0 0 l 33 0 l 33 644 l 397 644 m 26 774 l 26 789 q 183 897 26 897 l 226 897 q 390 789 390 897 l 390 774 q 226 664 390 664 l 182 664 q 26 774 26 664 z "},"k":{"ha":779,"x_min":14,"x_max":786,"o":"m 782 0 l 413 0 l 374 246 l 360 246 l 360 0 l 14 0 l 14 875 l 360 875 l 360 404 l 374 404 l 421 665 l 786 665 l 729 393 q 683 333 721 353 l 683 328 q 731 271 724 314 l 782 0 z "},"l":{"ha":413,"x_min":14,"x_max":410,"o":"m 14 174 l 14 875 l 374 875 l 374 264 q 410 231 374 231 l 399 -14 l 258 -14 q 14 174 14 -14 z "},"m":{"ha":1192,"x_min":14,"x_max":1178,"o":"m 943 682 q 1178 492 1178 682 l 1178 0 l 807 0 l 807 415 l 779 415 l 779 0 l 407 0 l 407 415 l 379 415 l 379 0 l 14 0 l 14 665 l 350 665 l 356 628 q 565 682 464 682 q 729 622 667 682 q 943 682 828 682 z "},"n":{"ha":792,"x_min":14,"x_max":778,"o":"m 356 628 q 567 682 467 682 q 722 628 667 682 q 778 485 778 575 l 778 0 l 407 0 l 407 415 l 379 415 l 379 0 l 14 0 l 14 665 l 350 665 l 356 628 z "},"o":{"ha":789,"x_min":6,"x_max":783,"o":"m 6 335 q 6 427 6 335 q 101 600 6 518 q 397 682 196 682 q 691 601 599 682 q 783 337 783 521 q 694 69 783 153 q 399 -14 604 -14 q 99 69 193 -14 q 6 335 6 153 m 411 182 l 411 446 l 383 446 l 383 182 l 411 182 z "},"p":{"ha":792,"x_min":14,"x_max":786,"o":"m 479 -14 q 379 0 439 -14 l 379 -190 l 14 -190 l 14 665 l 336 665 l 342 638 q 510 682 411 682 q 728 604 669 682 q 786 342 786 526 q 722 72 786 157 q 479 -14 657 -14 m 393 182 l 393 446 l 365 446 l 365 182 l 393 182 z "},"q":{"ha":794,"x_min":6,"x_max":781,"o":"m 322 -14 q 77 74 149 -14 q 6 333 6 163 q 78 592 6 503 q 288 682 150 682 q 453 640 378 682 l 457 665 l 781 665 l 781 -190 l 415 -190 l 415 -1 q 322 -14 371 -14 m 429 182 l 429 446 l 401 446 l 401 182 l 429 182 z "},"r":{"ha":485,"x_min":14,"x_max":482,"o":"m 379 317 l 379 0 l 14 0 l 14 665 l 319 665 l 322 631 l 328 631 q 482 671 369 671 l 467 385 l 450 385 q 395 371 411 385 q 379 317 379 357 z "},"s":{"ha":644,"x_min":3,"x_max":642,"o":"m 3 442 q 3 501 3 442 q 85 622 3 561 q 326 682 168 682 q 629 656 485 682 l 610 433 l 344 463 l 344 443 q 474 424 424 436 q 565 388 525 413 q 642 214 642 340 q 338 -14 642 -14 q 14 13 176 -14 l 24 229 l 308 196 l 308 215 q 181 239 231 226 q 88 275 132 251 q 3 442 3 322 z "},"t":{"ha":479,"x_min":0,"x_max":476,"o":"m 279 -14 q 95 33 153 -14 q 38 183 38 79 l 38 451 l 0 451 l 0 665 l 53 665 l 69 793 l 401 793 l 401 665 l 476 665 l 467 451 l 401 451 l 401 264 q 431 233 401 233 l 464 233 l 456 0 q 279 -14 353 -14 z "},"u":{"ha":792,"x_min":14,"x_max":778,"o":"m 213 -14 q 14 176 14 -14 l 14 665 l 383 665 l 383 236 l 411 236 l 411 665 l 778 665 l 778 0 l 426 0 l 426 44 l 421 44 q 213 -14 319 -14 z "},"v":{"ha":769,"x_min":-14,"x_max":783,"o":"m 783 665 l 650 0 l 121 0 l -14 665 l 368 665 l 389 365 l 400 365 l 424 665 l 783 665 z "},"w":{"ha":1011,"x_min":0,"x_max":1011,"o":"m 1011 665 l 932 0 l 543 0 l 514 210 l 506 210 l 483 0 l 78 0 l 0 665 l 319 665 l 335 407 l 346 407 l 365 665 l 656 665 l 675 407 l 688 407 l 701 665 l 1011 665 z "},"x":{"ha":799,"x_min":0,"x_max":799,"o":"m 799 0 l 425 0 l 403 160 l 392 160 l 369 0 l 0 0 l 118 325 l 1 665 l 378 665 l 399 478 l 410 478 l 431 665 l 794 665 l 681 326 l 799 0 z "},"y":{"ha":767,"x_min":-11,"x_max":778,"o":"m 778 665 l 618 -10 q 525 -148 594 -106 q 308 -190 456 -190 l 60 -190 l 35 44 l 121 44 q 139 64 139 44 q 129 103 139 74 l -11 665 l 368 665 l 392 350 l 403 350 l 431 665 l 778 665 z "},"z":{"ha":658,"x_min":3,"x_max":656,"o":"m 656 0 l 31 0 l 19 181 l 188 418 l 17 418 l 3 665 l 639 665 l 650 494 l 490 244 l 656 244 l 656 0 z "},"{":{"ha":551,"x_min":0,"x_max":538,"o":"m 538 -190 l 332 -190 q 149 -147 204 -190 q 93 -4 93 -104 l 93 215 q 76 246 93 240 q 0 251 60 251 l 0 449 q 78 453 63 449 q 93 485 93 458 l 93 678 q 147 831 93 786 q 332 875 200 875 l 538 875 l 538 671 l 432 671 l 432 456 q 417 392 432 413 q 367 353 403 371 l 367 344 q 417 306 401 328 q 432 243 432 283 l 432 7 l 538 7 l 538 -190 z "},"|":{"ha":386,"x_min":28,"x_max":358,"o":"m 358 -190 l 28 -190 l 28 863 l 358 863 l 358 -190 z "},"}":{"ha":551,"x_min":14,"x_max":551,"o":"m 219 -190 l 14 -190 l 14 7 l 119 7 l 119 243 q 135 306 119 283 q 186 344 151 328 l 186 353 q 134 391 149 371 q 119 456 119 411 l 119 671 l 14 671 l 14 875 l 219 875 q 405 831 351 875 q 458 678 458 786 l 458 485 q 474 453 458 458 q 551 449 489 449 l 551 251 q 461 236 469 251 q 458 215 458 229 l 458 -4 q 403 -147 458 -104 q 219 -190 347 -190 z "},"~":{"ha":694,"x_min":60,"x_max":640,"o":"m 640 911 l 640 892 q 605 747 640 792 q 464 701 569 701 q 311 735 417 701 l 311 701 l 60 701 l 60 722 q 97 865 60 819 q 231 911 133 911 q 390 878 276 911 l 390 911 l 640 911 z "}," ":{"ha":243,"x_min":0,"x_max":0,"o":""},"¡":{"ha":378,"x_min":14,"x_max":350,"o":"m 331 419 l 350 -190 l 14 -190 l 38 419 l 331 419 m 336 582 l 336 539 q 306 466 336 488 q 207 444 276 444 l 164 444 q 58 466 88 444 q 28 539 28 488 l 28 582 q 58 656 28 635 q 167 678 89 678 l 211 678 q 308 657 279 678 q 336 582 336 636 z "},"¢":{"ha":539,"x_min":6,"x_max":539,"o":"m 445 390 q 436 390 445 390 q 417 377 428 390 q 406 324 406 364 q 416 273 406 285 q 445 261 426 261 q 517 267 464 261 l 532 1 q 447 -11 469 -8 l 447 -89 l 138 -89 l 138 36 q 6 324 6 114 q 138 622 6 533 l 138 746 l 446 746 l 446 679 q 539 668 479 678 l 515 385 q 445 390 463 390 z "},"£":{"ha":935,"x_min":28,"x_max":932,"o":"m 446 875 q 792 847 553 875 l 765 560 l 583 581 l 579 572 l 600 533 l 764 533 l 751 374 l 625 374 l 625 222 l 649 222 l 649 350 l 932 350 l 932 249 q 875 31 932 104 q 663 -43 818 -43 q 432 1 576 -43 l 426 1 q 251 -33 335 -33 q 28 165 28 -33 q 78 306 28 258 q 214 354 128 354 q 274 351 229 354 l 274 374 l 121 374 l 121 533 l 225 533 q 182 674 182 626 q 446 875 182 875 m 243 142 l 285 142 l 285 169 l 243 169 l 243 142 z "},"¤":{"ha":1082,"x_min":67,"x_max":1015,"o":"m 117 106 l 75 175 l 247 275 q 224 418 224 350 q 240 549 224 486 l 67 650 l 110 724 l 276 628 q 547 753 372 753 q 815 631 721 753 l 974 724 l 1015 650 l 853 556 q 871 424 871 493 q 843 274 871 354 l 1010 175 l 965 104 l 799 203 q 542 100 703 100 q 286 206 381 100 q 117 106 226 172 m 543 169 q 785 425 785 169 q 724 614 785 547 q 543 681 664 681 q 304 424 304 681 q 367 233 304 297 q 543 169 429 169 z "},"¥":{"ha":821,"x_min":-14,"x_max":835,"o":"m 835 863 l 685 451 l 753 451 l 753 296 l 629 296 l 621 275 l 753 275 l 753 122 l 603 122 l 603 0 l 211 0 l 211 122 l 57 122 l 57 275 l 193 275 l 186 296 l 57 296 l 57 451 l 131 451 l -14 863 l 372 863 l 407 579 l 424 579 l 458 863 l 835 863 z "},"¦":{"ha":386,"x_min":28,"x_max":358,"o":"m 358 -190 l 28 -190 l 28 301 l 358 301 l 358 -190 m 358 863 l 358 396 l 28 396 l 28 863 l 358 863 z "},"§":{"ha":686,"x_min":3,"x_max":683,"o":"m 379 640 l 376 626 q 613 528 542 590 q 683 349 683 465 q 622 139 683 233 q 639 47 639 94 q 556 -137 639 -72 q 319 -203 474 -203 q 18 -179 165 -203 l 40 51 q 325 25 290 25 l 329 46 q 77 166 151 93 q 3 375 3 239 q 68 561 3 478 q 54 644 54 601 q 142 823 54 771 q 388 875 231 875 q 658 851 497 875 l 614 621 q 379 640 408 640 m 436 328 l 276 403 l 261 368 l 421 294 l 436 328 z "},"¨":{"ha":694,"x_min":57,"x_max":643,"o":"m 197 703 q 158 703 197 703 q 88 722 118 703 q 57 795 57 742 q 88 869 57 849 q 197 889 119 889 q 305 869 275 889 q 335 795 335 849 q 306 722 335 742 q 197 703 276 703 m 506 703 q 466 703 506 703 q 396 722 426 703 q 365 795 365 742 q 397 869 365 849 q 506 889 428 889 q 613 869 583 889 q 643 795 643 849 q 614 722 643 742 q 506 703 585 703 z "},"©":{"ha":1443,"x_min":14,"x_max":1429,"o":"m 458 965 q 753 982 569 982 q 1063 956 936 982 q 1275 856 1189 929 q 1395 658 1361 782 q 1429 365 1429 533 q 1415 96 1429 196 q 1365 -77 1400 -4 q 1281 -195 1329 -150 q 1152 -267 1232 -240 q 980 -304 1072 -294 q 749 -314 888 -314 q 512 -305 611 -314 q 324 -270 413 -296 q 181 -200 235 -244 q 88 -83 128 -156 q 14 344 14 50 q 114 784 14 639 q 458 965 214 929 m 1096 150 l 1096 492 q 1036 665 1096 618 q 839 711 976 711 l 585 711 q 404 663 461 711 q 347 488 347 615 l 347 157 q 407 -13 347 33 q 599 -60 467 -60 l 860 -60 q 1044 -15 992 -60 q 1096 150 1096 29 m 760 315 q 760 285 760 315 q 772 240 760 256 q 831 224 785 224 q 965 233 878 224 l 976 -10 q 717 -25 772 -25 q 469 56 543 -25 q 396 328 396 138 q 472 594 396 518 q 735 669 549 669 q 976 657 808 669 l 961 399 q 822 406 860 406 q 772 390 783 406 q 760 315 760 375 z "},"ª":{"ha":578,"x_min":44,"x_max":574,"o":"m 554 746 l 550 579 q 574 556 550 556 l 561 404 q 449 400 518 400 q 340 431 379 400 l 336 431 q 208 400 281 400 q 44 542 44 400 q 106 659 44 628 q 303 696 168 690 l 303 715 l 82 697 l 63 868 q 334 888 218 888 q 502 856 450 888 q 554 746 554 824 m 293 600 l 293 522 l 313 522 l 313 600 l 293 600 z "},"«":{"ha":838,"x_min":0,"x_max":835,"o":"m 357 292 l 357 346 l 533 603 l 835 603 l 649 324 l 835 46 l 519 46 l 357 292 m 0 292 l 0 346 l 176 603 l 478 603 l 292 324 l 478 46 l 163 46 l 0 292 z "},"¬":{"ha":713,"x_min":21,"x_max":678,"o":"m 379 119 l 379 258 l 21 258 l 21 528 l 678 528 l 678 119 l 379 119 z "},"®":{"ha":1499,"x_min":14,"x_max":1485,"o":"m 1324 855 q 1369 818 1324 855 q 1450 658 1415 781 q 1485 365 1485 535 q 1469 96 1485 196 q 1415 -77 1453 -4 q 1323 -195 1376 -150 q 1183 -267 1269 -240 q 997 -304 1097 -294 q 754 -314 897 -314 q 512 -305 611 -314 q 324 -270 413 -296 q 181 -200 235 -244 q 88 -83 128 -156 q 14 344 14 50 q 114 784 14 639 q 458 965 214 929 q 763 982 569 982 q 1094 956 957 982 q 1324 855 1232 929 m 835 665 q 1026 613 967 665 q 1086 441 1086 560 q 1024 264 1086 322 l 1094 -6 q 1151 150 1151 44 l 1151 492 q 1081 660 1151 608 q 874 711 1011 711 l 585 711 q 403 661 458 711 q 347 493 347 611 l 347 150 q 407 -10 347 39 q 599 -60 467 -60 l 894 -60 q 1083 -14 1024 -60 l 799 -14 l 760 194 l 739 194 l 739 -14 l 431 -14 l 431 665 l 835 665 m 769 358 l 769 472 l 735 472 l 735 358 l 769 358 z "},"¯":{"ha":694,"x_min":99,"x_max":597,"o":"m 597 690 l 99 690 l 99 863 l 597 863 l 597 690 z "},"°":{"ha":471,"x_min":7,"x_max":464,"o":"m 236 868 q 297 868 236 868 q 410 824 357 868 q 464 688 464 781 q 410 553 464 596 q 236 510 357 510 q 61 553 115 510 q 7 688 7 596 q 61 824 7 779 q 236 868 115 868 m 221 710 l 221 663 l 249 663 l 249 710 l 221 710 z "},"±":{"ha":624,"x_min":21,"x_max":603,"o":"m 176 268 l 176 372 l 21 372 l 21 636 l 176 636 l 176 789 l 446 789 l 446 636 l 603 636 l 603 372 l 446 372 l 446 268 l 176 268 m 597 0 l 21 0 l 21 250 l 597 250 l 597 0 z "},"²":{"ha":506,"x_min":14,"x_max":500,"o":"m 254 875 q 500 690 500 875 q 473 565 500 617 q 386 457 446 514 l 386 451 l 499 451 l 499 263 l 36 263 l 31 411 q 169 614 169 536 q 140 643 169 643 q 33 628 125 643 l 14 846 q 254 875 126 875 z "},"³":{"ha":524,"x_min":14,"x_max":518,"o":"m 46 463 q 197 447 183 447 q 218 466 218 447 q 194 485 218 485 l 63 485 l 63 626 l 194 626 q 214 644 214 626 q 190 663 214 663 q 32 642 167 663 l 14 844 q 261 875 136 875 q 508 706 508 875 q 493 629 508 658 q 440 578 478 600 l 440 574 q 518 438 518 536 q 458 296 518 339 q 273 253 397 253 q 28 276 149 253 l 46 463 z "},"´":{"ha":694,"x_min":249,"x_max":663,"o":"m 663 890 l 497 710 l 249 710 l 338 890 l 663 890 z "},"µ":{"ha":814,"x_min":14,"x_max":811,"o":"m 792 -7 q 642 -14 697 -14 q 552 -6 586 -14 q 486 28 518 3 l 478 28 q 369 -14 439 -14 l 369 -190 l 14 -190 l 14 665 l 383 665 l 383 236 l 411 236 l 411 665 l 778 665 l 778 240 q 811 208 778 208 l 792 -7 z "},"¶":{"ha":938,"x_min":8,"x_max":910,"o":"m 590 658 l 590 -190 l 319 -190 l 319 213 q 80 288 151 213 q 8 542 8 364 q 83 797 8 721 q 328 872 157 872 l 910 872 l 910 -190 l 640 -190 l 640 658 l 590 658 z "},"·":{"ha":426,"x_min":28,"x_max":399,"o":"m 28 400 l 28 443 q 67 517 28 494 q 189 540 107 540 l 228 540 q 358 517 317 540 q 399 443 399 494 l 399 400 q 357 325 399 347 q 225 303 315 303 l 183 303 q 65 324 103 303 q 28 400 28 344 z "},"¸":{"ha":694,"x_min":149,"x_max":511,"o":"m 511 -110 q 465 -201 511 -168 q 326 -235 419 -235 q 149 -185 232 -235 l 214 -71 q 331 -126 268 -108 l 336 -115 l 257 -81 q 231 -43 231 -67 q 258 6 231 -19 l 422 6 l 404 -18 l 404 -24 q 511 -110 511 -24 z "},"¹":{"ha":357,"x_min":14,"x_max":343,"o":"m 343 258 l 69 258 l 69 644 l 14 644 l 14 803 l 103 863 l 343 863 l 343 258 z "},"º":{"ha":589,"x_min":43,"x_max":588,"o":"m 43 644 q 43 708 43 644 q 110 830 43 772 q 317 888 176 888 q 523 831 458 888 q 588 647 588 775 q 524 459 588 518 q 317 400 461 400 q 108 458 174 400 q 43 644 43 517 m 326 538 l 326 722 l 307 722 l 307 538 l 326 538 z "},"»":{"ha":838,"x_min":3,"x_max":838,"o":"m 481 356 l 481 301 l 304 44 l 3 44 l 189 324 l 3 601 l 318 601 l 481 356 m 838 356 l 838 301 l 661 44 l 360 44 l 546 324 l 360 601 l 675 601 l 838 356 z "},"¼":{"ha":1211,"x_min":14,"x_max":1206,"o":"m 756 863 l 575 0 l 294 0 l 474 863 l 756 863 m 343 258 l 69 258 l 69 644 l 14 644 l 14 803 l 103 863 l 343 863 l 343 258 m 1197 94 l 1156 94 l 1156 0 l 882 0 l 882 94 l 658 94 l 644 229 l 783 604 l 1156 604 l 1156 256 l 1206 256 l 1197 94 m 896 251 l 896 333 l 861 333 l 861 251 l 896 251 z "},"½":{"ha":1200,"x_min":14,"x_max":1186,"o":"m 756 863 l 575 0 l 294 0 l 474 863 l 756 863 m 343 258 l 69 258 l 69 644 l 14 644 l 14 803 l 103 863 l 343 863 l 343 258 m 940 613 q 1186 428 1186 613 q 1159 303 1186 354 q 1072 194 1132 251 l 1072 189 l 1185 189 l 1185 0 l 722 0 l 717 149 q 856 351 856 274 q 826 381 856 381 q 719 365 811 381 l 700 583 q 940 613 813 613 z "},"¾":{"ha":1350,"x_min":14,"x_max":1344,"o":"m 904 863 l 724 0 l 443 0 l 622 863 l 904 863 m 46 463 q 197 447 183 447 q 218 466 218 447 q 194 485 218 485 l 63 485 l 63 626 l 194 626 q 214 644 214 626 q 190 663 214 663 q 32 642 167 663 l 14 844 q 261 875 136 875 q 508 706 508 875 q 493 629 508 658 q 440 578 478 600 l 440 574 q 518 438 518 536 q 458 296 518 339 q 273 253 397 253 q 28 276 149 253 l 46 463 m 1336 94 l 1294 94 l 1294 0 l 1021 0 l 1021 94 l 797 94 l 783 229 l 922 604 l 1294 604 l 1294 256 l 1344 256 l 1336 94 m 1035 251 l 1035 333 l 1000 333 l 1000 251 l 1035 251 z "},"¿":{"ha":544,"x_min":0,"x_max":531,"o":"m 0 56 q 43 237 0 174 q 193 339 86 300 l 193 421 l 479 421 l 479 278 q 460 205 479 226 q 399 166 442 183 q 347 137 357 149 q 336 104 336 125 q 378 65 336 65 q 531 81 407 65 l 531 -186 q 311 -204 408 -204 q 0 56 0 -204 m 490 582 l 490 539 q 460 466 490 488 q 361 444 431 444 l 318 444 q 212 466 242 444 q 182 539 182 488 l 182 582 q 213 656 182 635 q 321 678 243 678 l 365 678 q 462 657 433 678 q 490 582 490 636 z "},"À":{"ha":924,"x_min":-11,"x_max":935,"o":"m 935 0 l 532 0 l 510 132 l 401 132 l 378 0 l -11 0 l 157 863 l 767 863 l 935 0 m 479 317 l 479 489 l 435 489 l 435 317 l 479 317 m 364 896 l 207 1068 l 515 1068 l 600 896 l 364 896 z "},"Á":{"ha":924,"x_min":-11,"x_max":935,"o":"m 935 0 l 532 0 l 510 132 l 401 132 l 378 0 l -11 0 l 157 863 l 767 863 l 935 0 m 479 317 l 479 489 l 435 489 l 435 317 l 479 317 m 706 1068 l 549 896 l 313 896 l 397 1068 l 706 1068 z "},"Â":{"ha":924,"x_min":-11,"x_max":935,"o":"m 935 0 l 532 0 l 510 132 l 401 132 l 378 0 l -11 0 l 157 863 l 767 863 l 935 0 m 479 317 l 479 489 l 435 489 l 435 317 l 479 317 m 624 1060 l 714 883 l 485 883 l 463 931 l 458 931 l 436 883 l 201 883 l 292 1060 l 624 1060 z "},"Ã":{"ha":924,"x_min":-11,"x_max":935,"o":"m 935 0 l 532 0 l 510 132 l 401 132 l 378 0 l -11 0 l 157 863 l 767 863 l 935 0 m 479 317 l 479 489 l 435 489 l 435 317 l 479 317 m 735 1088 l 735 1069 q 701 931 735 974 q 567 889 668 889 q 422 921 518 889 l 422 889 l 183 889 l 183 908 q 219 1044 183 1000 q 346 1088 254 1088 q 497 1056 393 1088 l 497 1088 l 735 1088 z "},"Ä":{"ha":924,"x_min":-11,"x_max":935,"o":"m 935 0 l 532 0 l 510 132 l 401 132 l 378 0 l -11 0 l 157 863 l 767 863 l 935 0 m 479 317 l 479 489 l 435 489 l 435 317 l 479 317 m 311 890 q 274 890 311 890 q 207 908 236 890 q 178 977 178 926 q 208 1047 178 1028 q 311 1067 238 1067 q 413 1048 385 1067 q 442 978 442 1029 q 414 908 442 926 q 311 890 386 890 m 603 890 q 566 890 603 890 q 499 908 528 890 q 471 977 471 926 q 500 1047 471 1028 q 603 1067 529 1067 q 706 1048 678 1067 q 735 978 735 1029 q 707 908 735 926 q 603 890 679 890 z "},"Å":{"ha":924,"x_min":-11,"x_max":935,"o":"m 281 903 q 322 994 281 971 q 462 1018 364 1018 q 601 996 560 1018 q 642 910 642 974 q 636 863 642 879 l 767 863 l 935 0 l 532 0 l 510 132 l 401 132 l 378 0 l -11 0 l 157 863 l 286 863 q 281 903 281 878 m 479 317 l 479 489 l 435 489 l 435 317 l 479 317 m 475 863 l 475 939 l 447 939 l 447 863 l 475 863 z "},"Æ":{"ha":1204,"x_min":-28,"x_max":1204,"o":"m 1178 0 l 553 0 l 553 132 l 410 132 l 358 0 l -28 0 l 333 863 l 1204 863 l 1183 579 l 944 579 l 944 529 l 1178 529 l 1164 299 l 944 299 l 944 249 l 1199 249 l 1178 0 m 553 317 l 553 551 l 547 551 l 467 317 l 553 317 z "},"Ç":{"ha":650,"x_min":8,"x_max":639,"o":"m 532 -110 q 486 -201 532 -168 q 347 -235 440 -235 q 169 -185 253 -235 l 235 -71 q 351 -126 289 -108 l 357 -115 l 278 -81 q 251 -43 251 -67 q 279 6 251 -19 q 75 145 142 40 q 8 438 8 250 q 121 775 8 675 q 474 875 233 875 q 639 861 535 875 l 615 529 q 530 536 560 536 q 485 517 500 536 q 469 422 469 497 q 485 325 469 346 q 531 304 501 304 q 618 315 560 304 l 639 0 q 451 -14 539 -14 l 428 -14 l 425 -18 l 425 -24 q 532 -110 532 -24 z "},"È":{"ha":679,"x_min":28,"x_max":679,"o":"m 653 0 l 28 0 l 28 863 l 679 863 l 658 579 l 419 579 l 419 529 l 653 529 l 639 299 l 419 299 l 419 249 l 674 249 l 653 0 m 281 896 l 124 1068 l 432 1068 l 517 896 l 281 896 z "},"É":{"ha":679,"x_min":28,"x_max":679,"o":"m 653 0 l 28 0 l 28 863 l 679 863 l 658 579 l 419 579 l 419 529 l 653 529 l 639 299 l 419 299 l 419 249 l 674 249 l 653 0 m 636 1068 l 479 896 l 243 896 l 328 1068 l 636 1068 z "},"Ê":{"ha":679,"x_min":28,"x_max":679,"o":"m 653 0 l 28 0 l 28 863 l 679 863 l 658 579 l 419 579 l 419 529 l 653 529 l 639 299 l 419 299 l 419 249 l 674 249 l 653 0 m 517 1060 l 607 883 l 378 883 l 356 931 l 351 931 l 329 883 l 94 883 l 185 1060 l 517 1060 z "},"Ë":{"ha":679,"x_min":28,"x_max":679,"o":"m 653 0 l 28 0 l 28 863 l 679 863 l 658 579 l 419 579 l 419 529 l 653 529 l 639 299 l 419 299 l 419 249 l 674 249 l 653 0 m 215 890 q 178 890 215 890 q 111 908 140 890 q 82 977 82 926 q 112 1047 82 1028 q 215 1067 142 1067 q 317 1048 289 1067 q 346 978 346 1029 q 318 908 346 926 q 215 890 290 890 m 508 890 q 470 890 508 890 q 403 908 432 890 q 375 977 375 926 q 404 1047 375 1028 q 508 1067 433 1067 q 610 1048 582 1067 q 639 978 639 1029 q 611 908 639 926 q 508 890 583 890 z "},"Ì":{"ha":447,"x_min":-10,"x_max":419,"o":"m 419 0 l 28 0 l 28 863 l 419 863 l 419 0 m 147 910 l -10 1082 l 299 1082 l 383 910 l 147 910 z "},"Í":{"ha":447,"x_min":28,"x_max":453,"o":"m 419 0 l 28 0 l 28 863 l 419 863 l 419 0 m 453 1082 l 296 910 l 60 910 l 144 1082 l 453 1082 z "},"Î":{"ha":447,"x_min":-35,"x_max":478,"o":"m 419 0 l 28 0 l 28 863 l 419 863 l 419 0 m 388 1074 l 478 897 l 249 897 l 226 944 l 222 944 l 200 897 l -35 897 l 56 1074 l 388 1074 z "},"Ï":{"ha":447,"x_min":-54,"x_max":503,"o":"m 418 0 l 26 0 l 26 863 l 418 863 l 418 0 m 79 904 q 42 904 79 904 q -25 922 4 904 q -54 991 -54 940 q -24 1061 -54 1042 q 79 1081 6 1081 q 181 1062 153 1081 q 210 992 210 1043 q 182 922 210 940 q 79 904 154 904 m 372 904 q 334 904 372 904 q 267 922 296 904 q 239 991 239 940 q 268 1061 239 1042 q 372 1081 297 1081 q 474 1062 446 1081 q 503 992 503 1043 q 475 922 503 940 q 372 904 447 904 z "},"Ð":{"ha":885,"x_min":-21,"x_max":876,"o":"m 876 450 q 401 0 876 0 l 28 0 l 28 271 l -21 271 l -21 554 l 28 554 l 28 863 l 410 863 q 770 756 664 863 q 876 450 876 650 m 456 218 l 456 604 l 406 604 l 406 218 l 456 218 z "},"Ñ":{"ha":906,"x_min":28,"x_max":878,"o":"m 878 0 l 522 0 l 365 276 l 365 0 l 28 0 l 28 863 l 393 863 l 538 583 l 538 863 l 878 863 l 878 0 m 721 1088 l 721 1069 q 688 931 721 974 q 553 889 654 889 q 408 921 504 889 l 408 889 l 169 889 l 169 908 q 205 1044 169 1000 q 332 1088 240 1088 q 483 1056 379 1088 l 483 1088 l 721 1088 z "},"Ò":{"ha":931,"x_min":8,"x_max":922,"o":"m 8 437 q 8 552 8 437 q 115 772 8 668 q 467 875 221 875 q 817 773 713 875 q 922 440 922 671 q 814 97 922 208 q 463 -14 706 -14 q 115 96 221 -14 q 8 437 8 206 m 353 910 l 196 1082 l 504 1082 l 589 910 l 353 910 m 496 218 l 496 604 l 451 604 l 451 218 l 496 218 z "},"Ó":{"ha":931,"x_min":8,"x_max":922,"o":"m 8 437 q 8 552 8 437 q 115 772 8 668 q 467 875 221 875 q 817 773 713 875 q 922 440 922 671 q 814 97 922 208 q 463 -14 706 -14 q 115 96 221 -14 q 8 437 8 206 m 729 1082 l 572 910 l 336 910 l 421 1082 l 729 1082 m 496 218 l 496 604 l 451 604 l 451 218 l 496 218 z "},"Ô":{"ha":931,"x_min":8,"x_max":922,"o":"m 8 437 q 8 552 8 437 q 115 772 8 668 q 467 875 221 875 q 817 773 713 875 q 922 440 922 671 q 814 97 922 208 q 463 -14 706 -14 q 115 96 221 -14 q 8 437 8 206 m 624 1074 l 714 897 l 485 897 l 463 944 l 458 944 l 436 897 l 201 897 l 292 1074 l 624 1074 m 496 218 l 496 604 l 451 604 l 451 218 l 496 218 z "},"Õ":{"ha":931,"x_min":8,"x_max":922,"o":"m 8 437 q 8 552 8 437 q 115 772 8 668 q 467 875 221 875 q 817 773 713 875 q 922 440 922 671 q 814 97 922 208 q 463 -14 706 -14 q 115 96 221 -14 q 8 437 8 206 m 739 1088 l 739 1069 q 706 931 739 974 q 571 889 672 889 q 426 921 522 889 l 426 889 l 188 889 l 188 908 q 223 1044 188 1000 q 350 1088 258 1088 q 501 1056 397 1088 l 501 1088 l 739 1088 m 496 218 l 496 604 l 451 604 l 451 218 l 496 218 z "},"Ö":{"ha":931,"x_min":8,"x_max":922,"o":"m 8 437 q 8 552 8 437 q 115 772 8 668 q 467 875 221 875 q 817 773 713 875 q 922 440 922 671 q 814 97 922 208 q 463 -14 706 -14 q 115 96 221 -14 q 8 437 8 206 m 605 890 q 567 890 605 890 q 501 908 529 890 q 472 977 472 926 q 501 1047 472 1028 q 605 1067 531 1067 q 708 1048 679 1067 q 736 978 736 1029 q 708 908 736 926 q 605 890 681 890 m 313 890 q 275 890 313 890 q 208 908 238 890 q 179 977 179 926 q 209 1047 179 1028 q 313 1067 239 1067 q 415 1048 386 1067 q 443 978 443 1029 q 415 908 443 926 q 313 890 388 890 m 496 218 l 496 604 l 451 604 l 451 218 l 496 218 z "},"×":{"ha":633,"x_min":11,"x_max":622,"o":"m 21 286 l 126 394 l 11 510 l 200 700 l 317 582 l 435 700 l 622 510 l 508 394 l 614 286 l 426 97 l 317 207 l 208 99 l 21 286 z "},"Ø":{"ha":931,"x_min":8,"x_max":922,"o":"m 468 876 q 518 875 501 876 l 546 935 l 910 935 l 828 763 q 922 434 922 660 q 814 97 922 208 q 461 -14 706 -14 l 450 -14 l 425 -67 l 57 -67 l 129 82 q 8 428 8 188 q 115 772 8 668 q 468 876 222 876 m 499 218 l 499 604 l 449 604 l 449 218 l 499 218 z "},"Ù":{"ha":894,"x_min":28,"x_max":867,"o":"m 422 863 l 422 246 l 467 246 l 467 863 l 867 863 l 867 289 q 443 -14 867 -14 q 135 61 242 -14 q 28 286 28 136 l 28 863 l 422 863 m 325 896 l 168 1068 l 476 1068 l 561 896 l 325 896 z "},"Ú":{"ha":894,"x_min":28,"x_max":867,"o":"m 422 863 l 422 246 l 467 246 l 467 863 l 867 863 l 867 289 q 443 -14 867 -14 q 135 61 242 -14 q 28 286 28 136 l 28 863 l 422 863 m 721 1068 l 564 896 l 328 896 l 413 1068 l 721 1068 z "},"Û":{"ha":894,"x_min":28,"x_max":867,"o":"m 422 863 l 422 246 l 467 246 l 467 863 l 867 863 l 867 289 q 443 -14 867 -14 q 135 61 242 -14 q 28 286 28 136 l 28 863 l 422 863 m 607 1060 l 697 883 l 468 883 l 446 931 l 442 931 l 419 883 l 185 883 l 275 1060 l 607 1060 z "},"Ü":{"ha":894,"x_min":28,"x_max":867,"o":"m 422 863 l 422 246 l 467 246 l 467 863 l 867 863 l 867 289 q 443 -14 867 -14 q 135 61 242 -14 q 28 286 28 136 l 28 863 l 422 863 m 297 890 q 260 890 297 890 q 193 908 222 890 q 164 977 164 926 q 194 1047 164 1028 q 297 1067 224 1067 q 399 1048 371 1067 q 428 978 428 1029 q 400 908 428 926 q 297 890 372 890 m 590 890 q 552 890 590 890 q 485 908 514 890 q 457 977 457 926 q 486 1047 457 1028 q 590 1067 515 1067 q 692 1048 664 1067 q 721 978 721 1029 q 693 908 721 926 q 590 890 665 890 z "},"Ý":{"ha":758,"x_min":-8,"x_max":840,"o":"m 840 863 l 608 224 l 608 0 l 217 0 l 217 225 l -8 863 l 378 863 l 413 579 l 429 579 l 464 863 l 840 863 m 688 1068 l 531 896 l 294 896 l 379 1068 l 688 1068 z "},"Þ":{"ha":825,"x_min":28,"x_max":825,"o":"m 733 663 q 779 625 733 663 q 825 426 825 588 q 735 190 825 265 q 460 115 646 115 l 419 115 l 419 0 l 28 0 l 28 863 l 419 863 l 419 738 l 443 738 q 733 663 642 738 m 458 319 l 458 492 l 419 492 l 419 319 l 458 319 z "},"ß":{"ha":851,"x_min":-8,"x_max":846,"o":"m 439 506 l 439 650 l 389 650 l 389 0 l 38 0 l 38 454 l -8 454 l -8 646 l 38 646 l 38 654 q 135 842 38 782 q 429 903 232 903 q 829 636 829 903 q 813 528 829 567 q 746 458 797 489 l 746 453 q 824 383 801 429 q 846 254 846 338 q 776 58 846 124 q 544 -8 706 -8 q 410 0 507 -8 l 410 176 l 439 176 l 439 347 l 410 347 l 410 506 l 439 506 z "},"à":{"ha":760,"x_min":0,"x_max":757,"o":"m 729 481 l 722 242 q 757 208 722 208 l 738 -8 q 604 -14 654 -14 q 424 29 479 -14 l 417 29 q 233 -14 333 -14 q 0 189 0 -14 q 97 361 0 315 q 211 394 149 385 q 369 408 274 404 l 369 438 l 53 411 l 26 656 q 406 682 233 682 q 654 636 579 682 q 729 481 729 590 m 356 272 l 356 161 l 383 161 l 383 272 l 356 272 m 292 710 l 126 890 l 451 890 l 540 710 l 292 710 z "},"á":{"ha":760,"x_min":0,"x_max":757,"o":"m 729 481 l 722 242 q 757 208 722 208 l 738 -8 q 604 -14 654 -14 q 424 29 479 -14 l 417 29 q 233 -14 333 -14 q 0 189 0 -14 q 97 361 0 315 q 211 394 149 385 q 369 408 274 404 l 369 438 l 53 411 l 26 656 q 406 682 233 682 q 654 636 579 682 q 729 481 729 590 m 356 272 l 356 161 l 383 161 l 383 272 l 356 272 m 671 890 l 506 710 l 257 710 l 346 890 l 671 890 z "},"â":{"ha":760,"x_min":0,"x_max":757,"o":"m 729 481 l 722 242 q 757 208 722 208 l 738 -8 q 604 -14 654 -14 q 424 29 479 -14 l 417 29 q 233 -14 333 -14 q 0 189 0 -14 q 97 361 0 315 q 211 394 149 385 q 369 408 274 404 l 369 438 l 53 411 l 26 656 q 406 682 233 682 q 654 636 579 682 q 729 481 729 590 m 356 272 l 356 161 l 383 161 l 383 272 l 356 272 m 553 882 l 647 696 l 406 696 l 383 746 l 378 746 l 356 696 l 108 696 l 203 882 l 553 882 z "},"ã":{"ha":760,"x_min":0,"x_max":757,"o":"m 729 481 l 722 242 q 757 208 722 208 l 738 -8 q 604 -14 654 -14 q 424 29 479 -14 l 417 29 q 233 -14 333 -14 q 0 189 0 -14 q 97 361 0 315 q 211 394 149 385 q 369 408 274 404 l 369 438 l 53 411 l 26 656 q 406 682 233 682 q 654 636 579 682 q 729 481 729 590 m 356 272 l 356 161 l 383 161 l 383 272 l 356 272 m 664 911 l 664 892 q 628 747 664 792 q 488 701 593 701 q 335 735 440 701 l 335 701 l 83 701 l 83 722 q 120 865 83 819 q 254 911 157 911 q 414 878 300 911 l 414 911 l 664 911 z "},"ä":{"ha":760,"x_min":0,"x_max":757,"o":"m 729 481 l 722 242 q 757 208 722 208 l 738 -8 q 604 -14 654 -14 q 424 29 479 -14 l 417 29 q 233 -14 333 -14 q 0 189 0 -14 q 97 361 0 315 q 211 394 149 385 q 369 408 274 404 l 369 438 l 53 411 l 26 656 q 406 682 233 682 q 654 636 579 682 q 729 481 729 590 m 356 272 l 356 161 l 383 161 l 383 272 l 356 272 m 229 703 q 190 703 229 703 q 119 722 150 703 q 89 795 89 742 q 120 869 89 849 q 229 889 151 889 q 337 869 307 889 q 367 795 367 849 q 338 722 367 742 q 229 703 308 703 m 538 703 q 498 703 538 703 q 428 722 458 703 q 397 795 397 742 q 428 869 397 849 q 538 889 460 889 q 645 869 615 889 q 675 795 675 849 q 646 722 675 742 q 538 703 617 703 z "},"å":{"ha":760,"x_min":0,"x_max":757,"o":"m 729 481 l 722 242 q 757 208 722 208 l 738 -8 q 604 -14 654 -14 q 424 29 479 -14 l 417 29 q 233 -14 333 -14 q 0 189 0 -14 q 97 361 0 315 q 211 394 149 385 q 369 408 274 404 l 369 438 l 53 411 l 26 656 q 406 682 233 682 q 654 636 579 682 q 729 481 729 590 m 200 806 q 200 839 200 806 q 242 896 200 872 q 381 919 283 919 q 520 897 479 919 q 561 808 561 875 q 521 718 561 740 q 382 696 481 696 q 242 718 283 696 q 200 806 200 740 m 356 272 l 356 161 l 383 161 l 383 272 l 356 272 m 394 764 l 394 840 l 367 840 l 367 764 l 394 764 z "},"æ":{"ha":1122,"x_min":0,"x_max":1119,"o":"m 1119 414 q 1108 250 1119 354 l 740 250 l 740 225 q 860 218 800 218 q 1083 226 919 218 l 1097 17 q 751 -14 906 -14 q 493 29 597 -14 l 486 29 q 233 -14 371 -14 q 0 189 0 -14 q 97 361 0 315 q 211 394 149 385 q 369 408 274 404 l 369 438 l 53 411 l 26 656 q 383 682 233 682 q 600 660 532 682 q 772 682 671 682 q 1042 613 965 682 q 1119 414 1119 544 m 356 272 l 356 161 l 383 161 l 383 272 l 356 272 m 767 353 l 767 463 l 739 463 l 739 353 l 767 353 z "},"ç":{"ha":539,"x_min":6,"x_max":539,"o":"m 375 682 q 539 668 463 682 l 515 390 q 442 396 457 396 q 406 328 406 396 q 416 268 406 281 q 445 256 426 256 q 517 261 464 256 l 532 1 q 375 -14 442 -14 l 372 -18 l 372 -24 q 479 -110 479 -24 q 433 -201 479 -168 q 294 -235 388 -235 q 117 -185 200 -235 l 182 -71 q 299 -126 236 -108 l 304 -115 l 225 -81 q 199 -44 199 -67 q 222 3 199 -21 q 6 321 6 58 q 375 682 6 682 z "},"è":{"ha":754,"x_min":3,"x_max":751,"o":"m 751 414 q 740 250 751 354 l 372 250 l 372 225 q 492 218 432 218 q 715 226 551 218 l 729 17 q 389 -14 539 -14 q 3 329 3 -14 q 404 682 3 682 q 674 613 597 682 q 751 414 751 544 m 300 710 l 135 890 l 460 890 l 549 710 l 300 710 m 399 353 l 399 463 l 371 463 l 371 353 l 399 353 z "},"é":{"ha":754,"x_min":3,"x_max":751,"o":"m 751 414 q 740 250 751 354 l 372 250 l 372 225 q 492 218 432 218 q 715 226 551 218 l 729 17 q 389 -14 539 -14 q 3 329 3 -14 q 404 682 3 682 q 674 613 597 682 q 751 414 751 544 m 676 890 l 511 710 l 263 710 l 351 890 l 676 890 m 399 353 l 399 463 l 371 463 l 371 353 l 399 353 z "},"ê":{"ha":754,"x_min":3,"x_max":751,"o":"m 751 414 q 740 250 751 354 l 372 250 l 372 225 q 492 218 432 218 q 715 226 551 218 l 729 17 q 389 -14 539 -14 q 3 329 3 -14 q 404 682 3 682 q 674 613 597 682 q 751 414 751 544 m 558 882 l 653 696 l 411 696 l 389 746 l 383 746 l 361 696 l 114 696 l 208 882 l 558 882 m 399 353 l 399 463 l 371 463 l 371 353 l 399 353 z "},"ë":{"ha":754,"x_min":3,"x_max":751,"o":"m 751 414 q 740 250 751 354 l 372 250 l 372 225 q 492 218 432 218 q 715 226 551 218 l 729 17 q 389 -14 539 -14 q 3 329 3 -14 q 404 682 3 682 q 674 613 597 682 q 751 414 751 544 m 543 703 q 503 703 543 703 q 433 722 464 703 q 403 795 403 742 q 434 869 403 849 q 543 889 465 889 q 651 869 621 889 q 681 795 681 849 q 651 722 681 742 q 543 703 622 703 m 235 703 q 195 703 235 703 q 125 722 156 703 q 94 795 94 742 q 126 869 94 849 q 235 889 157 889 q 342 869 313 889 q 372 795 372 849 q 343 722 372 742 q 235 703 314 703 m 399 353 l 399 463 l 371 463 l 371 353 l 399 353 z "},"ì":{"ha":392,"x_min":-53,"x_max":378,"o":"m 378 0 l 14 0 l 14 644 l 378 644 l 378 0 m 113 710 l -53 890 l 272 890 l 361 710 l 113 710 z "},"í":{"ha":392,"x_min":14,"x_max":460,"o":"m 378 0 l 14 0 l 14 644 l 378 644 l 378 0 m 460 890 l 294 710 l 46 710 l 135 890 l 460 890 z "},"î":{"ha":392,"x_min":-67,"x_max":472,"o":"m 382 0 l 18 0 l 18 644 l 382 644 l 382 0 m 378 882 l 472 696 l 231 696 l 208 746 l 203 746 l 181 696 l -67 696 l 28 882 l 378 882 z "},"ï":{"ha":392,"x_min":-94,"x_max":492,"o":"m 382 0 l 18 0 l 18 644 l 382 644 l 382 0 m 46 703 q 6 703 46 703 q -64 722 -33 703 q -94 795 -94 742 q -63 869 -94 849 q 46 889 -32 889 q 153 869 124 889 q 183 795 183 849 q 154 722 183 742 q 46 703 125 703 m 354 703 q 315 703 354 703 q 244 722 275 703 q 214 795 214 742 q 245 869 214 849 q 354 889 276 889 q 462 869 432 889 q 492 795 492 849 q 463 722 492 742 q 354 703 433 703 z "},"ð":{"ha":792,"x_min":6,"x_max":786,"o":"m 324 557 q 417 551 372 557 l 418 556 q 353 604 392 586 l 169 551 l 169 681 l 199 689 l 199 696 l 78 696 l 78 908 q 472 863 315 908 l 660 935 l 660 751 l 629 736 q 786 368 786 592 q 694 85 786 183 q 406 -14 603 -14 q 6 289 6 -14 q 324 557 6 557 m 410 182 l 410 363 l 382 363 l 382 182 l 410 182 z "},"ñ":{"ha":792,"x_min":14,"x_max":778,"o":"m 356 628 q 567 682 467 682 q 722 628 667 682 q 778 485 778 575 l 778 0 l 407 0 l 407 415 l 379 415 l 379 0 l 14 0 l 14 665 l 350 665 l 356 628 m 678 911 l 678 892 q 642 747 678 792 q 501 701 607 701 q 349 735 454 701 l 349 701 l 97 701 l 97 722 q 134 865 97 819 q 268 911 171 911 q 428 878 314 911 l 428 911 l 678 911 z "},"ò":{"ha":789,"x_min":6,"x_max":783,"o":"m 6 335 q 6 427 6 335 q 101 600 6 518 q 397 682 196 682 q 691 601 599 682 q 783 337 783 521 q 694 69 783 153 q 399 -14 604 -14 q 99 69 193 -14 q 6 335 6 153 m 296 710 l 131 890 l 456 890 l 544 710 l 296 710 m 411 182 l 411 446 l 383 446 l 383 182 l 411 182 z "},"ó":{"ha":789,"x_min":6,"x_max":783,"o":"m 6 335 q 6 427 6 335 q 101 600 6 518 q 397 682 196 682 q 691 601 599 682 q 783 337 783 521 q 694 69 783 153 q 399 -14 604 -14 q 99 69 193 -14 q 6 335 6 153 m 665 890 l 500 710 l 251 710 l 340 890 l 665 890 m 411 182 l 411 446 l 383 446 l 383 182 l 411 182 z "},"ô":{"ha":789,"x_min":6,"x_max":783,"o":"m 6 335 q 6 427 6 335 q 101 600 6 518 q 397 682 196 682 q 691 601 599 682 q 783 337 783 521 q 694 69 783 153 q 399 -14 604 -14 q 99 69 193 -14 q 6 335 6 153 m 571 882 l 665 696 l 424 696 l 401 746 l 396 746 l 374 696 l 126 696 l 221 882 l 571 882 m 411 182 l 411 446 l 383 446 l 383 182 l 411 182 z "},"õ":{"ha":789,"x_min":6,"x_max":783,"o":"m 6 335 q 6 427 6 335 q 101 600 6 518 q 397 682 196 682 q 691 601 599 682 q 783 337 783 521 q 694 69 783 153 q 399 -14 604 -14 q 99 69 193 -14 q 6 335 6 153 m 679 911 l 679 892 q 644 747 679 792 q 503 701 608 701 q 350 735 456 701 l 350 701 l 99 701 l 99 722 q 135 865 99 819 q 269 911 172 911 q 429 878 315 911 l 429 911 l 679 911 m 411 182 l 411 446 l 383 446 l 383 182 l 411 182 z "},"ö":{"ha":789,"x_min":6,"x_max":783,"o":"m 6 335 q 6 427 6 335 q 101 600 6 518 q 397 682 196 682 q 691 601 599 682 q 783 337 783 521 q 694 69 783 153 q 399 -14 604 -14 q 99 69 193 -14 q 6 335 6 153 m 551 703 q 512 703 551 703 q 442 722 472 703 q 411 795 411 742 q 442 869 411 849 q 551 889 474 889 q 659 869 629 889 q 689 795 689 849 q 660 722 689 742 q 551 703 631 703 m 243 703 q 203 703 243 703 q 133 722 164 703 q 103 795 103 742 q 134 869 103 849 q 243 889 165 889 q 351 869 321 889 q 381 795 381 849 q 351 722 381 742 q 243 703 322 703 m 411 182 l 411 446 l 383 446 l 383 182 l 411 182 z "},"÷":{"ha":618,"x_min":21,"x_max":597,"o":"m 163 96 l 163 139 q 192 212 163 190 q 292 233 222 233 l 335 233 q 441 212 411 233 q 471 139 471 190 l 471 96 q 440 22 471 43 q 332 0 410 0 l 288 0 q 191 21 219 0 q 163 96 163 42 m 163 650 l 163 693 q 192 766 163 744 q 292 788 222 788 l 335 788 q 441 766 411 788 q 471 693 471 744 l 471 650 q 440 576 471 597 q 332 554 410 554 l 288 554 q 191 575 219 554 q 163 650 163 596 m 597 258 l 21 258 l 21 528 l 597 528 l 597 258 z "},"ø":{"ha":789,"x_min":6,"x_max":783,"o":"m 400 682 l 419 682 l 449 739 l 753 739 l 686 606 q 783 339 783 525 q 694 69 783 153 q 400 -14 604 -14 l 386 -14 l 358 -74 l 51 -74 l 114 57 q 6 328 6 138 q 101 600 6 518 q 400 682 196 682 m 411 182 l 411 446 l 383 446 l 383 182 l 411 182 z "},"ù":{"ha":792,"x_min":14,"x_max":778,"o":"m 213 -14 q 14 176 14 -14 l 14 665 l 383 665 l 383 236 l 411 236 l 411 665 l 778 665 l 778 0 l 426 0 l 426 44 l 421 44 q 213 -14 319 -14 m 275 710 l 110 890 l 435 890 l 524 710 l 275 710 z "},"ú":{"ha":792,"x_min":14,"x_max":778,"o":"m 213 -14 q 14 176 14 -14 l 14 665 l 383 665 l 383 236 l 411 236 l 411 665 l 778 665 l 778 0 l 426 0 l 426 44 l 421 44 q 213 -14 319 -14 m 688 890 l 522 710 l 274 710 l 363 890 l 688 890 z "},"û":{"ha":792,"x_min":14,"x_max":778,"o":"m 213 -14 q 14 176 14 -14 l 14 665 l 383 665 l 383 236 l 411 236 l 411 665 l 778 665 l 778 0 l 426 0 l 426 44 l 421 44 q 213 -14 319 -14 m 568 882 l 663 696 l 421 696 l 399 746 l 393 746 l 371 696 l 124 696 l 218 882 l 568 882 z "},"ü":{"ha":792,"x_min":14,"x_max":778,"o":"m 213 -14 q 14 176 14 -14 l 14 665 l 383 665 l 383 236 l 411 236 l 411 665 l 778 665 l 778 0 l 426 0 l 426 44 l 421 44 q 213 -14 319 -14 m 244 703 q 205 703 244 703 q 135 722 165 703 q 104 795 104 742 q 135 869 104 849 q 244 889 167 889 q 352 869 322 889 q 382 795 382 849 q 353 722 382 742 q 244 703 324 703 m 553 703 q 513 703 553 703 q 443 722 474 703 q 413 795 413 742 q 444 869 413 849 q 553 889 475 889 q 660 869 631 889 q 690 795 690 849 q 661 722 690 742 q 553 703 632 703 z "},"ý":{"ha":836,"x_min":24,"x_max":813,"o":"m 813 665 l 653 -10 q 560 -148 629 -106 q 343 -190 490 -190 l 94 -190 l 69 44 l 156 44 q 174 64 174 44 q 164 103 174 74 l 24 665 l 403 665 l 426 350 l 438 350 l 465 665 l 813 665 m 711 890 l 546 710 l 297 710 l 386 890 l 711 890 z "},"þ":{"ha":792,"x_min":14,"x_max":786,"o":"m 501 -14 q 379 0 439 -14 l 379 -189 l 14 -189 l 14 889 l 368 889 l 368 664 q 504 682 428 682 q 724 600 663 682 q 786 339 786 518 q 725 73 786 160 q 501 -14 664 -14 m 393 182 l 393 446 l 365 446 l 365 182 l 393 182 z "},"ÿ":{"ha":836,"x_min":24,"x_max":813,"o":"m 813 665 l 653 -10 q 560 -148 629 -106 q 343 -190 490 -190 l 94 -190 l 69 44 l 156 44 q 174 64 174 44 q 164 103 174 74 l 24 665 l 403 665 l 426 350 l 438 350 l 465 665 l 813 665 m 278 703 q 238 703 278 703 q 168 722 199 703 q 138 795 138 742 q 169 869 138 849 q 278 889 200 889 q 385 869 356 889 q 415 795 415 849 q 386 722 415 742 q 278 703 357 703 m 586 703 q 547 703 586 703 q 476 722 507 703 q 446 795 446 742 q 477 869 446 849 q 586 889 508 889 q 694 869 664 889 q 724 795 724 849 q 694 722 724 742 q 586 703 665 703 z "},"ħ":{"ha":792,"x_min":0,"x_max":778,"o":"m 457 696 l 368 696 l 368 646 q 556 682 444 682 q 722 628 667 682 q 778 485 778 575 l 778 0 l 407 0 l 407 415 l 379 415 l 379 0 l 14 0 l 14 696 l 0 696 l 0 849 l 14 849 l 14 875 l 368 875 l 368 849 l 457 849 l 457 696 z "},"Ĩ":{"ha":447,"x_min":-54,"x_max":497,"o":"m 419 0 l 28 0 l 28 863 l 419 863 l 419 0 m 497 1088 l 497 1069 q 464 931 497 974 q 329 889 431 889 q 185 921 281 889 l 185 889 l -54 889 l -54 908 q -19 1044 -54 1000 q 108 1088 17 1088 q 260 1056 156 1088 l 260 1088 l 497 1088 z "},"ĩ":{"ha":392,"x_min":-94,"x_max":486,"o":"m 378 0 l 14 0 l 14 644 l 378 644 l 378 0 m 486 911 l 486 892 q 451 747 486 792 q 310 701 415 701 q 157 735 263 701 l 157 701 l -94 701 l -94 722 q -58 865 -94 819 q 76 911 -21 911 q 236 878 122 911 l 236 911 l 486 911 z "},"ı":{"ha":392,"x_min":14,"x_max":378,"o":"m 378 0 l 14 0 l 14 644 l 378 644 l 378 0 z "},"Ĳ":{"ha":938,"x_min":28,"x_max":910,"o":"m 419 0 l 28 0 l 28 863 l 419 863 l 419 0 m 910 863 l 910 182 q 867 30 910 74 q 696 -14 824 -14 l 463 -14 l 447 238 l 518 238 l 518 863 l 910 863 z "},"ĳ":{"ha":803,"x_min":14,"x_max":789,"o":"m 789 644 l 789 3 q 724 -148 789 -106 q 501 -190 660 -190 l 403 -190 l 392 0 l 425 0 l 425 644 l 789 644 m 378 0 l 14 0 l 14 644 l 378 644 l 378 0 m 14 772 l 14 788 q 171 896 14 896 l 214 896 q 378 788 378 896 l 378 772 q 214 663 378 663 l 169 663 q 14 772 14 663 m 422 772 l 422 788 q 579 896 422 896 l 622 896 q 786 788 786 896 l 786 772 q 622 663 786 663 l 578 663 q 422 772 422 663 z "},"Ĵ":{"ha":490,"x_min":-10,"x_max":503,"o":"m 463 863 l 463 182 q 419 30 463 74 q 249 -14 376 -14 l 15 -14 l 0 238 l 71 238 l 71 863 l 463 863 m 413 1060 l 503 883 l 274 883 l 251 931 l 247 931 l 225 883 l -10 883 l 81 1060 l 413 1060 z "},"ĵ":{"ha":411,"x_min":-64,"x_max":475,"o":"m 397 644 l 397 3 q 333 -148 397 -106 q 110 -190 268 -190 l 11 -190 l 0 0 l 33 0 l 33 644 l 397 644 m 381 882 l 475 696 l 233 696 l 211 746 l 206 746 l 183 696 l -64 696 l 31 882 l 381 882 z "},"ķ":{"ha":779,"x_min":14,"x_max":786,"o":"m 782 0 l 413 0 l 374 246 l 360 246 l 360 0 l 14 0 l 14 875 l 360 875 l 360 404 l 374 404 l 421 665 l 786 665 l 729 393 q 683 333 721 353 l 683 328 q 731 271 724 314 l 782 0 m 257 -124 l 257 -89 q 363 -12 257 -12 l 411 -12 q 497 -32 472 -12 q 521 -101 521 -51 q 504 -181 521 -151 q 438 -243 488 -210 l 303 -243 l 340 -190 q 276 -176 294 -190 q 257 -124 257 -162 z "},"ĸ":{"ha":779,"x_min":14,"x_max":782,"o":"m 782 0 l 413 0 l 374 246 l 360 246 l 360 0 l 14 0 l 14 665 l 363 665 l 363 404 l 371 404 q 468 616 403 550 q 657 682 533 682 l 758 682 l 733 364 q 664 324 676 364 q 732 244 718 308 l 782 0 z "},"Ŀ":{"ha":811,"x_min":28,"x_max":811,"o":"m 544 0 l 28 0 l 28 863 l 419 863 l 419 276 l 564 276 l 544 0 m 440 400 l 440 443 q 480 517 440 494 q 601 540 519 540 l 640 540 q 770 517 729 540 q 811 443 811 494 l 811 400 q 769 325 811 347 q 638 303 728 303 l 596 303 q 478 324 515 303 q 440 400 440 344 z "},"ŀ":{"ha":783,"x_min":14,"x_max":769,"o":"m 14 174 l 14 875 l 374 875 l 374 264 q 410 231 374 231 l 399 -14 l 258 -14 q 14 174 14 -14 m 399 386 l 399 429 q 438 503 399 481 q 560 526 478 526 l 599 526 q 728 503 688 526 q 769 429 769 481 l 769 386 q 728 311 769 333 q 596 289 686 289 l 554 289 q 436 310 474 289 q 399 386 399 331 z "},"Ł":{"ha":564,"x_min":0,"x_max":578,"o":"m 558 0 l 42 0 l 42 204 l 0 188 l 0 485 l 42 501 l 42 863 l 433 863 l 433 661 l 482 682 l 482 386 l 433 365 l 433 276 l 578 276 l 558 0 z "},"ł":{"ha":440,"x_min":0,"x_max":440,"o":"m 42 174 l 42 210 l 0 193 l 0 490 l 42 507 l 42 889 l 401 889 l 401 651 l 440 668 l 440 372 l 401 356 l 401 264 q 438 231 401 231 l 426 -14 l 286 -14 q 42 174 42 -14 z "},"Ń":{"ha":906,"x_min":28,"x_max":878,"o":"m 878 0 l 522 0 l 365 276 l 365 0 l 28 0 l 28 863 l 393 863 l 538 583 l 538 863 l 878 863 l 878 0 m 706 1068 l 549 896 l 313 896 l 397 1068 l 706 1068 z "},"ń":{"ha":792,"x_min":14,"x_max":778,"o":"m 356 628 q 567 682 467 682 q 722 628 667 682 q 778 485 778 575 l 778 0 l 407 0 l 407 415 l 379 415 l 379 0 l 14 0 l 14 665 l 350 665 l 356 628 m 658 890 l 493 710 l 244 710 l 333 890 l 658 890 z "},"Œ":{"ha":1146,"x_min":7,"x_max":1146,"o":"m 1119 0 l 615 0 q 460 -14 539 -14 q 113 96 219 -14 q 7 437 7 206 q 113 772 7 668 q 467 875 219 875 q 621 863 553 875 l 1146 863 l 1125 579 l 886 579 l 886 529 l 1119 529 l 1106 299 l 886 299 l 886 249 l 1140 249 l 1119 0 m 494 218 l 494 604 l 450 604 l 450 218 l 494 218 z "},"œ":{"ha":1165,"x_min":6,"x_max":1160,"o":"m 1160 414 q 1149 250 1160 354 l 781 250 l 781 225 q 900 218 840 218 q 1124 226 960 218 l 1138 17 q 814 -14 946 -14 q 603 18 682 -14 q 400 -14 529 -14 q 99 69 193 -14 q 6 335 6 153 q 101 600 6 518 q 400 682 196 682 q 607 647 529 682 q 813 682 685 682 q 1083 613 1006 682 q 1160 414 1160 544 m 411 182 l 411 446 l 383 446 l 383 182 l 411 182 m 807 353 l 807 463 l 779 463 l 779 353 l 807 353 z "},"Ŕ":{"ha":865,"x_min":28,"x_max":872,"o":"m 486 863 q 758 794 672 863 q 844 585 844 726 q 757 367 844 444 l 872 0 l 494 0 l 444 268 l 419 268 l 419 0 l 28 0 l 28 863 l 486 863 m 458 472 l 458 614 l 414 614 l 414 472 l 458 472 m 664 1068 l 507 896 l 271 896 l 356 1068 l 664 1068 z "},"Ŗ":{"ha":865,"x_min":28,"x_max":872,"o":"m 486 863 q 758 794 672 863 q 844 585 844 726 q 757 367 844 444 l 872 0 l 494 0 l 444 268 l 419 268 l 419 0 l 28 0 l 28 863 l 486 863 m 458 472 l 458 614 l 414 614 l 414 472 l 458 472 m 328 -124 l 328 -89 q 433 -12 328 -12 l 482 -12 q 567 -32 543 -12 q 592 -101 592 -51 q 575 -181 592 -151 q 508 -243 558 -210 l 374 -243 l 411 -190 q 347 -176 365 -190 q 328 -124 328 -162 z "},"ŗ":{"ha":485,"x_min":14,"x_max":482,"o":"m 379 317 l 379 0 l 14 0 l 14 665 l 319 665 l 322 631 l 328 631 q 482 671 369 671 l 467 385 l 450 385 q 395 371 411 385 q 379 317 379 357 m 83 -124 l 83 -89 q 189 -12 83 -12 l 238 -12 q 323 -32 299 -12 q 347 -101 347 -51 q 331 -181 347 -151 q 264 -243 314 -210 l 129 -243 l 167 -190 q 102 -176 121 -190 q 83 -124 83 -162 z "},"Ř":{"ha":865,"x_min":28,"x_max":872,"o":"m 486 863 q 758 794 672 863 q 844 585 844 726 q 757 367 844 444 l 872 0 l 494 0 l 444 268 l 419 268 l 419 0 l 28 0 l 28 863 l 486 863 m 458 472 l 458 614 l 414 614 l 414 472 l 458 472 m 253 892 l 163 1068 l 392 1068 l 414 1021 l 418 1021 l 440 1068 l 675 1068 l 585 892 l 253 892 z "},"ř":{"ha":485,"x_min":-26,"x_max":513,"o":"m 379 317 l 379 0 l 14 0 l 14 665 l 319 665 l 322 631 l 328 631 q 482 671 369 671 l 467 385 l 450 385 q 395 371 411 385 q 379 317 379 357 m 68 704 l -26 890 l 215 890 l 238 840 l 243 840 l 265 890 l 513 890 l 418 704 l 68 704 z "},"Š":{"ha":735,"x_min":0,"x_max":735,"o":"m 735 283 q 378 -14 735 -14 q 26 28 201 -14 l 38 281 l 357 219 l 357 244 q 206 284 264 264 q 97 340 147 304 q 0 562 0 410 q 92 794 0 714 q 356 875 185 875 q 713 846 526 875 l 686 569 l 376 617 l 376 590 q 649 501 563 565 q 735 283 735 436 m 189 892 l 99 1068 l 328 1068 l 350 1021 l 354 1021 l 376 1068 l 611 1068 l 521 892 l 189 892 z "},"š":{"ha":644,"x_min":3,"x_max":642,"o":"m 3 442 q 3 501 3 442 q 85 622 3 561 q 326 682 168 682 q 629 656 485 682 l 610 433 l 344 463 l 344 443 q 474 424 424 436 q 565 388 525 413 q 642 214 642 340 q 338 -14 642 -14 q 14 13 176 -14 l 24 229 l 308 196 l 308 215 q 181 239 231 226 q 88 275 132 251 q 3 442 3 322 m 142 704 l 47 890 l 289 890 l 311 840 l 317 840 l 339 890 l 586 890 l 492 704 l 142 704 z "},"Ÿ":{"ha":758,"x_min":-8,"x_max":840,"o":"m 840 863 l 608 224 l 608 0 l 217 0 l 217 225 l -8 863 l 378 863 l 413 579 l 429 579 l 464 863 l 840 863 m 269 890 q 232 890 269 890 q 165 908 194 890 q 136 977 136 926 q 166 1047 136 1028 q 269 1067 196 1067 q 372 1048 343 1067 q 400 978 400 1029 q 372 908 400 926 q 269 890 344 890 m 562 890 q 524 890 562 890 q 458 908 486 890 q 429 977 429 926 q 458 1047 429 1028 q 562 1067 488 1067 q 665 1048 636 1067 q 693 978 693 1029 q 665 908 693 926 q 562 890 638 890 z "},"Ž":{"ha":801,"x_min":0,"x_max":801,"o":"m 801 0 l 36 1 l 25 215 l 283 579 l 18 579 l 0 863 l 782 863 l 793 649 l 563 260 l 801 260 l 801 0 m 239 892 l 149 1068 l 378 1068 l 400 1021 l 404 1021 l 426 1068 l 661 1068 l 571 892 l 239 892 z "},"ž":{"ha":658,"x_min":3,"x_max":656,"o":"m 656 0 l 31 0 l 19 181 l 188 418 l 17 418 l 3 665 l 639 665 l 650 494 l 490 244 l 656 244 l 656 0 m 156 704 l 61 890 l 303 890 l 325 840 l 331 840 l 353 890 l 600 890 l 506 704 l 156 704 z "},"ƒ":{"ha":640,"x_min":-25,"x_max":647,"o":"m 151 -204 q -25 -186 86 -204 l -11 32 l 89 21 l 133 432 l 35 432 l 54 590 l 147 590 l 157 667 q 236 833 171 778 q 443 889 301 889 q 647 872 526 889 l 611 633 l 507 646 l 501 590 l 608 590 l 590 432 l 485 432 q 463 224 478 363 q 440 15 447 85 q 360 -150 429 -96 q 151 -204 290 -204 z "},"ˆ":{"ha":694,"x_min":74,"x_max":613,"o":"m 518 882 l 613 696 l 371 696 l 349 746 l 343 746 l 321 696 l 74 696 l 168 882 l 518 882 z "},"ˇ":{"ha":694,"x_min":82,"x_max":621,"o":"m 176 704 l 82 890 l 324 890 l 346 840 l 351 840 l 374 890 l 621 890 l 526 704 l 176 704 z "},"˘":{"ha":694,"x_min":85,"x_max":619,"o":"m 343 822 l 365 822 l 365 888 l 619 888 q 552 715 617 771 q 350 658 488 658 q 149 714 213 658 q 85 888 85 769 l 343 888 l 343 822 z "},"˙":{"ha":694,"x_min":158,"x_max":522,"o":"m 158 772 l 158 788 q 315 896 158 896 l 358 896 q 522 788 522 896 l 522 772 q 358 663 522 663 l 314 663 q 158 772 158 663 z "},"˚":{"ha":694,"x_min":172,"x_max":533,"o":"m 172 806 q 172 839 172 806 q 214 896 172 872 q 353 919 256 919 q 492 897 451 919 q 533 808 533 875 q 493 718 533 740 q 354 696 453 696 q 214 718 256 696 q 172 806 172 740 m 367 764 l 367 840 l 339 840 l 339 764 l 367 764 z "},"˛":{"ha":694,"x_min":194,"x_max":547,"o":"m 194 -129 q 226 -55 194 -86 q 319 6 257 -24 l 492 6 l 404 -107 l 407 -111 q 522 -75 469 -100 l 547 -192 q 343 -233 458 -233 q 194 -129 194 -233 z "},"˜":{"ha":694,"x_min":60,"x_max":640,"o":"m 640 911 l 640 892 q 605 747 640 792 q 464 701 569 701 q 311 735 417 701 l 311 701 l 60 701 l 60 722 q 97 865 60 819 q 231 911 133 911 q 390 878 276 911 l 390 911 l 640 911 z "},"˝":{"ha":694,"x_min":74,"x_max":683,"o":"m 422 883 l 242 694 l 74 694 l 185 883 l 422 883 m 683 883 l 488 694 l 304 694 l 439 883 l 683 883 z "},"̇":{"ha":694,"x_min":158,"x_max":522,"o":"m 158 772 l 158 788 q 315 896 158 896 l 358 896 q 522 788 522 896 l 522 772 q 358 663 522 663 l 314 663 q 158 772 158 663 z "},"Δ":{"ha":924,"x_min":-11,"x_max":935,"o":"m -11 0 l 171 863 l 753 863 l 935 0 l -11 0 m 451 551 l 404 293 l 510 293 l 460 551 l 451 551 z "},"Ω":{"ha":947,"x_min":6,"x_max":942,"o":"m 6 0 l 6 256 l 96 256 l 96 261 q 33 380 53 325 q 14 511 14 435 q 132 785 14 694 q 474 875 250 875 q 928 521 928 875 q 910 379 928 436 q 847 261 892 322 l 847 256 l 942 256 l 942 0 l 504 0 l 504 569 l 454 569 l 454 0 l 6 0 z "},"π":{"ha":847,"x_min":6,"x_max":842,"o":"m 807 0 l 436 0 l 436 415 l 408 415 l 408 0 l 43 0 l 43 417 l 6 417 l 6 665 l 842 665 l 842 417 l 807 417 l 807 0 z "},"–":{"ha":532,"x_min":21,"x_max":511,"o":"m 511 203 l 21 203 l 21 472 l 511 472 l 511 203 z "},"—":{"ha":810,"x_min":21,"x_max":789,"o":"m 789 203 l 21 203 l 21 472 l 789 472 l 789 203 z "},"‘":{"ha":350,"x_min":14,"x_max":322,"o":"m 322 675 l 322 632 q 292 559 322 581 q 193 538 263 538 l 150 538 q 44 559 74 538 q 14 632 14 581 l 14 679 q 48 805 14 753 q 157 903 82 857 l 265 903 l 225 771 l 239 771 q 303 750 285 771 q 322 675 322 729 z "},"’":{"ha":350,"x_min":28,"x_max":336,"o":"m 28 765 l 28 808 q 58 881 28 860 q 157 903 88 903 l 200 903 q 306 881 276 903 q 336 808 336 860 l 336 761 q 302 635 336 688 q 193 538 268 583 l 85 538 l 125 669 l 111 669 q 47 690 65 669 q 28 765 28 711 z "},"‚":{"ha":350,"x_min":14,"x_max":322,"o":"m 14 82 l 14 125 q 44 198 14 176 q 143 219 74 219 l 186 219 q 292 198 263 219 q 322 125 322 176 l 322 78 q 288 -48 322 4 q 179 -146 254 -100 l 71 -146 l 111 -14 l 97 -14 q 33 7 51 -14 q 14 82 14 28 z "},"“":{"ha":676,"x_min":14,"x_max":649,"o":"m 649 675 l 649 632 q 619 559 649 581 q 519 538 589 538 l 476 538 q 370 559 400 538 q 340 632 340 581 l 340 679 q 374 805 340 753 q 483 903 408 857 l 592 903 l 551 771 l 565 771 q 630 750 611 771 q 649 675 649 729 m 322 675 l 322 632 q 292 559 322 581 q 193 538 263 538 l 150 538 q 44 559 74 538 q 14 632 14 581 l 14 679 q 48 805 14 753 q 157 903 82 857 l 265 903 l 225 771 l 239 771 q 303 750 285 771 q 322 675 322 729 z "},"”":{"ha":676,"x_min":28,"x_max":663,"o":"m 28 765 l 28 808 q 58 881 28 860 q 157 903 88 903 l 200 903 q 306 881 276 903 q 336 808 336 860 l 336 761 q 302 635 336 688 q 193 538 268 583 l 85 538 l 125 669 l 111 669 q 47 690 65 669 q 28 765 28 711 m 354 765 l 354 808 q 384 881 354 860 q 483 903 414 903 l 526 903 q 633 881 603 903 q 663 808 663 860 l 663 761 q 628 635 663 688 q 519 538 594 583 l 411 538 l 451 669 l 438 669 q 373 690 392 669 q 354 765 354 711 z "},"„":{"ha":676,"x_min":14,"x_max":649,"o":"m 14 82 l 14 125 q 44 198 14 176 q 143 219 74 219 l 186 219 q 292 198 263 219 q 322 125 322 176 l 322 78 q 288 -48 322 4 q 179 -146 254 -100 l 71 -146 l 111 -14 l 97 -14 q 33 7 51 -14 q 14 82 14 28 m 340 82 l 340 125 q 370 198 340 176 q 469 219 400 219 l 513 219 q 619 198 589 219 q 649 125 649 176 l 649 78 q 615 -48 649 4 q 506 -146 581 -100 l 397 -146 l 438 -14 l 424 -14 q 359 7 378 -14 q 340 82 340 28 z "},"†":{"ha":700,"x_min":21,"x_max":679,"o":"m 21 444 l 21 665 l 192 665 l 192 842 l 500 842 l 500 665 l 679 665 l 679 444 l 500 444 l 500 -190 l 192 -190 l 192 444 l 21 444 z "},"‡":{"ha":700,"x_min":21,"x_max":679,"o":"m 21 0 l 21 221 l 192 221 l 192 444 l 21 444 l 21 665 l 192 665 l 192 842 l 500 842 l 500 665 l 679 665 l 679 444 l 500 444 l 500 221 l 679 221 l 679 0 l 500 0 l 500 -190 l 192 -190 l 192 0 l 21 0 z "},"•":{"ha":626,"x_min":100,"x_max":526,"o":"m 100 418 q 314 597 100 597 q 474 553 422 597 q 526 414 526 510 q 476 277 526 318 q 316 236 426 236 q 153 278 206 236 q 100 418 100 321 z "},"…":{"ha":1006,"x_min":14,"x_max":992,"o":"m 14 82 l 14 125 q 44 198 14 176 q 143 219 74 219 l 186 219 q 292 198 263 219 q 322 125 322 176 l 322 82 q 292 8 322 29 q 183 -14 261 -14 l 139 -14 q 42 7 71 -14 q 14 82 14 28 m 350 82 l 350 125 q 380 198 350 176 q 479 219 410 219 l 522 219 q 628 198 599 219 q 658 125 658 176 l 658 82 q 628 8 658 29 q 519 -14 597 -14 l 475 -14 q 378 7 407 -14 q 350 82 350 28 m 683 82 l 683 125 q 713 198 683 176 q 813 219 743 219 l 856 219 q 962 198 932 219 q 992 125 992 176 l 992 82 q 961 8 992 29 q 853 -14 931 -14 l 808 -14 q 712 7 740 -14 q 683 82 683 28 z "},"‰":{"ha":2046,"x_min":6,"x_max":2040,"o":"m 288 875 q 373 875 288 875 q 513 805 457 875 q 569 562 569 735 q 513 320 569 389 q 288 251 457 251 q 63 320 119 251 q 6 562 6 389 q 63 805 6 735 q 288 875 119 875 m 1173 610 q 1257 610 1173 610 q 1398 540 1342 610 q 1454 297 1454 469 q 1398 55 1454 124 q 1173 -14 1342 -14 q 947 55 1004 -14 q 890 297 890 124 q 947 540 890 469 q 1173 610 1004 610 m 1759 610 q 1843 610 1759 610 q 1984 540 1928 610 q 2040 297 2040 469 q 1984 55 2040 124 q 1759 -14 1928 -14 q 1533 55 1590 -14 q 1476 297 1476 124 q 1533 540 1476 469 q 1759 610 1590 610 m 964 863 l 786 0 l 499 0 l 675 863 l 964 863 m 1778 149 l 1778 418 l 1743 418 l 1743 149 l 1778 149 m 307 414 l 307 683 l 272 683 l 272 414 l 307 414 m 1192 149 l 1192 418 l 1157 418 l 1157 149 l 1192 149 z "},"‹":{"ha":481,"x_min":0,"x_max":478,"o":"m 0 292 l 0 346 l 176 603 l 478 603 l 292 324 l 478 46 l 163 46 l 0 292 z "},"›":{"ha":481,"x_min":3,"x_max":481,"o":"m 481 356 l 481 301 l 304 44 l 3 44 l 189 324 l 3 601 l 318 601 l 481 356 z "},"⁄":{"ha":532,"x_min":-14,"x_max":546,"o":"m 546 863 l 329 -190 l -14 -190 l 201 863 l 546 863 z "},"€":{"ha":744,"x_min":0,"x_max":742,"o":"m 0 576 l 88 576 q 212 804 111 733 q 518 875 313 875 q 742 851 607 875 l 715 601 q 547 617 578 617 q 464 576 476 617 l 714 576 l 703 421 l 438 421 l 438 400 l 700 400 l 690 247 l 458 247 q 543 213 469 213 q 710 229 569 213 l 738 8 q 493 -14 585 -14 q 218 44 314 -14 q 93 247 122 101 l 0 247 l 0 400 l 85 400 l 85 421 l 0 421 l 0 576 z "},"™":{"ha":997,"x_min":3,"x_max":994,"o":"m 375 703 l 306 703 l 306 375 l 83 375 l 83 703 l 3 703 l 10 863 l 385 863 l 375 703 m 994 375 l 804 375 l 797 571 l 790 571 l 768 375 l 593 375 l 575 571 l 567 571 l 560 375 l 378 375 l 399 863 l 654 863 l 679 685 l 690 685 l 710 863 l 972 863 l 994 375 z "},"∂":{"ha":800,"x_min":3,"x_max":797,"o":"m 376 363 l 376 196 l 432 196 l 432 363 l 376 363 m 318 556 l 413 556 q 375 588 413 588 l 71 588 l 56 863 l 278 863 q 672 755 547 863 q 797 397 797 647 q 699 85 797 185 q 393 -14 601 -14 q 94 63 185 -14 q 3 287 3 140 q 79 494 3 433 q 318 556 156 556 z "},"∏":{"ha":957,"x_min":3,"x_max":954,"o":"m 461 0 l 69 0 l 69 582 l 3 582 l 3 863 l 954 863 l 954 582 l 894 582 l 894 0 l 506 0 l 506 582 l 461 582 l 461 0 z "},"∑":{"ha":778,"x_min":6,"x_max":764,"o":"m 764 606 l 529 606 l 640 474 l 640 378 l 528 239 l 764 239 l 764 0 l 33 0 l 22 190 l 228 426 l 6 649 l 13 863 l 764 863 l 764 606 z "},"−":{"ha":618,"x_min":21,"x_max":597,"o":"m 597 258 l 21 258 l 21 528 l 597 528 l 597 258 z "},"√":{"ha":831,"x_min":-19,"x_max":1050,"o":"m -19 665 l 314 665 l 358 375 l 385 375 l 511 1097 l 1050 1097 l 1021 889 l 796 889 q 673 358 754 729 q 550 -174 592 -14 l 200 -174 l -19 665 z "},"∞":{"ha":1056,"x_min":50,"x_max":985,"o":"m 121 569 q 156 606 121 569 q 308 643 192 643 q 510 544 425 643 q 727 643 600 643 q 919 572 854 643 q 985 372 985 500 q 921 172 985 244 q 726 99 857 99 q 513 203 596 99 q 303 99 426 99 q 115 169 179 99 q 50 368 50 240 q 121 569 50 496 m 708 293 q 739 370 739 293 q 708 447 739 447 q 628 367 676 447 q 708 293 675 293 m 324 447 q 296 370 296 447 q 324 293 296 293 q 406 371 358 293 q 324 447 358 447 z "},"∫":{"ha":556,"x_min":-31,"x_max":586,"o":"m 111 239 l 135 764 q 215 1016 143 935 q 468 1097 288 1097 l 586 1097 l 568 818 q 488 798 504 818 q 469 713 472 778 l 443 164 q 359 -102 433 -31 q 82 -174 285 -174 l -31 -174 l -4 119 q 88 142 68 119 q 111 239 108 165 z "},"≈":{"ha":669,"x_min":50,"x_max":619,"o":"m 619 633 l 619 589 q 583 429 619 485 q 436 374 546 374 q 300 399 372 374 l 300 367 l 50 367 l 50 413 q 89 573 50 518 q 228 628 128 628 q 369 600 276 628 l 369 633 l 619 633 m 619 347 l 619 303 q 583 143 619 199 q 436 88 546 88 q 300 113 372 88 l 300 81 l 50 81 l 50 126 q 89 287 50 232 q 228 342 128 342 q 369 314 276 342 l 369 347 l 619 347 z "},"≠":{"ha":622,"x_min":1,"x_max":614,"o":"m 1 -36 l 68 119 l 28 119 l 28 342 l 165 342 l 179 375 l 28 375 l 28 596 l 275 596 l 338 739 l 614 739 l 553 596 l 594 596 l 594 375 l 457 375 l 443 342 l 594 342 l 594 119 l 347 119 l 281 -36 l 1 -36 z "},"≤":{"ha":657,"x_min":21,"x_max":636,"o":"m 636 210 l 28 332 l 28 681 l 636 838 l 636 531 l 361 514 l 361 503 l 636 488 l 636 210 m 636 -61 l 21 -61 l 21 208 l 636 208 l 636 -61 z "},"≥":{"ha":657,"x_min":21,"x_max":636,"o":"m 629 332 l 21 210 l 21 488 l 296 503 l 296 514 l 21 531 l 21 838 l 629 681 l 629 332 m 636 -61 l 21 -61 l 21 208 l 636 208 l 636 -61 z "},"◊":{"ha":732,"x_min":17,"x_max":715,"o":"m 715 399 l 485 -64 l 246 -64 l 17 396 l 250 861 l 485 861 l 715 399 m 414 399 l 365 510 l 319 400 l 367 286 l 414 399 z "},"ﬀ":{"ha":856,"x_min":0,"x_max":876,"o":"m 701 903 q 876 894 754 903 l 864 682 l 806 682 l 806 658 l 863 658 l 854 451 l 811 451 l 811 0 l 447 0 l 447 451 l 401 451 l 401 0 l 38 0 l 38 451 l 0 451 l 0 658 l 38 658 l 38 699 q 92 853 38 803 q 278 903 147 903 q 442 894 347 903 l 432 682 l 396 682 l 396 658 l 447 658 l 447 685 q 701 903 447 903 z "},"ﬁ":{"ha":826,"x_min":0,"x_max":813,"o":"m 811 0 l 447 0 l 447 438 l 401 438 l 401 0 l 38 0 l 38 451 l 0 451 l 0 658 l 38 658 l 38 671 q 292 889 38 889 q 435 881 364 889 l 426 682 l 396 682 l 396 644 l 811 644 l 811 0 m 449 772 l 449 788 q 606 896 449 896 l 649 896 q 813 788 813 896 l 813 772 q 649 663 813 663 l 604 663 q 449 772 449 663 z "},"ﬂ":{"ha":846,"x_min":0,"x_max":843,"o":"m 292 889 q 433 876 346 889 l 425 682 l 396 682 l 396 644 l 450 644 l 450 889 l 807 889 l 807 264 q 843 231 807 231 l 832 -14 l 692 -14 q 447 174 447 -14 l 447 438 l 401 438 l 401 0 l 38 0 l 38 451 l 0 451 l 0 658 l 38 658 l 38 671 q 292 889 38 889 z "},"ﬃ":{"ha":1235,"x_min":0,"x_max":1221,"o":"m 1221 0 l 857 0 l 857 438 l 811 438 l 811 0 l 447 0 l 447 451 l 401 451 l 401 0 l 38 0 l 38 451 l 0 451 l 0 658 l 38 658 l 38 699 q 92 853 38 803 q 278 903 147 903 q 442 894 347 903 l 432 682 l 396 682 l 396 658 l 447 658 l 447 699 q 502 853 447 803 q 688 903 557 903 q 844 894 774 903 l 836 682 l 806 682 l 806 644 l 1221 644 l 1221 0 m 857 772 l 857 788 q 1014 896 857 896 l 1057 896 q 1221 788 1221 896 l 1221 772 q 1057 663 1221 663 l 1013 663 q 857 772 857 663 z "},"ﬄ":{"ha":1256,"x_min":0,"x_max":1253,"o":"m 688 903 q 844 894 774 903 l 836 682 l 806 682 l 806 644 l 857 644 l 857 889 l 1217 889 l 1217 264 q 1253 231 1217 231 l 1242 -14 l 1101 -14 q 857 174 857 -14 l 857 438 l 811 438 l 811 0 l 447 0 l 447 451 l 401 451 l 401 0 l 38 0 l 38 451 l 0 451 l 0 658 l 38 658 l 38 699 q 92 853 38 803 q 278 903 147 903 q 442 894 347 903 l 432 682 l 396 682 l 396 658 l 447 658 l 447 699 q 502 853 447 803 q 688 903 557 903 z "}}}
